<svg width="281" height="212" viewBox="0 0 281 212" fill="none" xmlns="http://www.w3.org/2000/svg">
<rect width="281" height="212" fill="white"/>
<rect x="62" y="8" width="158" height="33" fill="#EBEBEB"/>
<rect x="62" y="62" width="158" height="33" fill="#EBEBEB"/>
<rect x="62" y="116" width="158" height="33" fill="#EBEBEB"/>
<rect x="62" y="170" width="158" height="33" fill="#EBEBEB"/>
<path d="M83.3355 17H82.4548C82.4027 16.7467 82.3116 16.5241 82.1814 16.3324C82.0535 16.1406 81.8973 15.9796 81.7126 15.8494C81.5303 15.7169 81.3279 15.6174 81.1054 15.5511C80.8828 15.4848 80.6508 15.4517 80.4094 15.4517C79.969 15.4517 79.5701 15.563 79.2126 15.7855C78.8575 16.008 78.5746 16.3359 78.3639 16.7692C78.1556 17.2024 78.0514 17.7339 78.0514 18.3636C78.0514 18.9934 78.1556 19.5249 78.3639 19.9581C78.5746 20.3913 78.8575 20.7192 79.2126 20.9418C79.5701 21.1643 79.969 21.2756 80.4094 21.2756C80.6508 21.2756 80.8828 21.2424 81.1054 21.1761C81.3279 21.1098 81.5303 21.0116 81.7126 20.8814C81.8973 20.7488 82.0535 20.5866 82.1814 20.3949C82.3116 20.2008 82.4027 19.9782 82.4548 19.7273H83.3355C83.2692 20.099 83.1485 20.4316 82.9733 20.7251C82.7981 21.0187 82.5803 21.2685 82.3199 21.4744C82.0595 21.678 81.7671 21.8331 81.4427 21.9396C81.1208 22.0462 80.7763 22.0994 80.4094 22.0994C79.7891 22.0994 79.2375 21.9479 78.7545 21.6449C78.2716 21.3419 77.8916 20.911 77.6146 20.3523C77.3376 19.7936 77.1991 19.1307 77.1991 18.3636C77.1991 17.5966 77.3376 16.9337 77.6146 16.375C77.8916 15.8163 78.2716 15.3854 78.7545 15.0824C79.2375 14.7794 79.7891 14.6278 80.4094 14.6278C80.7763 14.6278 81.1208 14.6811 81.4427 14.7876C81.7671 14.8942 82.0595 15.0504 82.3199 15.2564C82.5803 15.46 82.7981 15.7086 82.9733 16.0021C83.1485 16.2933 83.2692 16.6259 83.3355 17ZM85.483 14.7273V22H84.645V14.7273H85.483ZM88.6231 22.1278C88.2775 22.1278 87.9638 22.0627 87.6821 21.9325C87.4004 21.8 87.1766 21.6094 87.0109 21.3608C86.8452 21.1098 86.7623 20.8068 86.7623 20.4517C86.7623 20.1392 86.8239 19.8859 86.947 19.6918C87.0701 19.4953 87.2346 19.3414 87.4406 19.2301C87.6466 19.1188 87.8738 19.036 88.1224 18.9815C88.3734 18.9247 88.6255 18.8797 88.8788 18.8466C89.2103 18.804 89.479 18.772 89.6849 18.7507C89.8933 18.727 90.0448 18.688 90.1395 18.6335C90.2365 18.5791 90.2851 18.4844 90.2851 18.3494V18.321C90.2851 17.9706 90.1892 17.6984 89.9974 17.5043C89.808 17.3101 89.5204 17.2131 89.1345 17.2131C88.7344 17.2131 88.4207 17.3007 88.1934 17.4759C87.9662 17.651 87.8064 17.8381 87.714 18.0369L86.9186 17.7528C87.0606 17.4214 87.25 17.1634 87.4868 16.9787C87.7259 16.7917 87.9863 16.6615 88.268 16.5881C88.5521 16.5123 88.8315 16.4744 89.1061 16.4744C89.2813 16.4744 89.4825 16.4957 89.7098 16.5384C89.9394 16.5786 90.1608 16.6626 90.3738 16.7905C90.5893 16.9183 90.768 17.1113 90.9101 17.3693C91.0521 17.6274 91.1231 17.973 91.1231 18.4062V22H90.2851V21.2614H90.2425C90.1856 21.3797 90.0909 21.5064 89.9584 21.6413C89.8258 21.7763 89.6494 21.8911 89.4292 21.9858C89.2091 22.0805 88.9404 22.1278 88.6231 22.1278ZM88.751 21.375C89.0824 21.375 89.3618 21.3099 89.589 21.1797C89.8187 21.0495 89.9915 20.8814 90.1075 20.6754C90.2259 20.4695 90.2851 20.2528 90.2851 20.0256V19.2585C90.2496 19.3011 90.1714 19.3402 90.0507 19.3757C89.9323 19.4089 89.795 19.4384 89.6388 19.4645C89.4849 19.4882 89.3345 19.5095 89.1878 19.5284C89.0434 19.545 88.9262 19.5592 88.8362 19.571C88.6184 19.5994 88.4148 19.6456 88.2254 19.7095C88.0384 19.7711 87.8869 19.8646 87.7709 19.9901C87.6572 20.1132 87.6004 20.2812 87.6004 20.4943C87.6004 20.7855 87.7081 21.0057 87.9236 21.1548C88.1414 21.3016 88.4172 21.375 88.751 21.375ZM92.6528 22V16.5455H93.4909V22H92.6528ZM93.0789 15.6364C92.9156 15.6364 92.7747 15.5807 92.6563 15.4695C92.5403 15.3582 92.4823 15.2244 92.4823 15.0682C92.4823 14.9119 92.5403 14.7782 92.6563 14.6669C92.7747 14.5556 92.9156 14.5 93.0789 14.5C93.2423 14.5 93.382 14.5556 93.498 14.6669C93.6163 14.7782 93.6755 14.9119 93.6755 15.0682C93.6755 15.2244 93.6163 15.3582 93.498 15.4695C93.382 15.5807 93.2423 15.6364 93.0789 15.6364ZM95.0258 22V16.5455H95.8355V17.3977H95.9065C96.0202 17.1065 96.2036 16.8804 96.4569 16.7195C96.7103 16.5561 97.0145 16.4744 97.3696 16.4744C97.7294 16.4744 98.0289 16.5561 98.268 16.7195C98.5095 16.8804 98.6977 17.1065 98.8327 17.3977H98.8895C99.0291 17.116 99.2387 16.8923 99.518 16.7266C99.7974 16.5585 100.132 16.4744 100.523 16.4744C101.011 16.4744 101.41 16.6271 101.72 16.9325C102.03 17.2356 102.185 17.7079 102.185 18.3494V22H101.347V18.3494C101.347 17.947 101.237 17.6593 101.017 17.4865C100.796 17.3137 100.537 17.2273 100.239 17.2273C99.8554 17.2273 99.5583 17.3433 99.3476 17.5753C99.1369 17.8049 99.0315 18.0961 99.0315 18.4489V22H98.1792V18.2642C98.1792 17.9541 98.0786 17.7043 97.8774 17.5149C97.6762 17.3232 97.4169 17.2273 97.0997 17.2273C96.8819 17.2273 96.6783 17.2853 96.4889 17.4013C96.3019 17.5173 96.1504 17.6783 96.0344 17.8842C95.9207 18.0878 95.8639 18.3234 95.8639 18.5909V22H95.0258ZM108.589 22.1136C108.135 22.1136 107.734 21.9988 107.386 21.7692C107.038 21.5372 106.765 21.2105 106.569 20.7891C106.372 20.3653 106.274 19.8646 106.274 19.2869C106.274 18.714 106.372 18.2169 106.569 17.7955C106.765 17.3741 107.039 17.0485 107.389 16.8189C107.739 16.5893 108.144 16.4744 108.604 16.4744C108.959 16.4744 109.239 16.5336 109.445 16.652C109.654 16.768 109.812 16.9006 109.921 17.0497C110.032 17.1965 110.119 17.3172 110.18 17.4119H110.251V14.7273H111.089V22H110.28V21.1619H110.18C110.119 21.2614 110.031 21.3868 109.918 21.5384C109.804 21.6875 109.642 21.8213 109.431 21.9396C109.22 22.0556 108.94 22.1136 108.589 22.1136ZM108.703 21.3608C109.039 21.3608 109.323 21.2732 109.555 21.098C109.787 20.9205 109.964 20.6754 110.084 20.3629C110.205 20.0481 110.266 19.6847 110.266 19.2727C110.266 18.8655 110.206 18.5092 110.088 18.2038C109.97 17.8961 109.794 17.657 109.562 17.4865C109.33 17.3137 109.044 17.2273 108.703 17.2273C108.348 17.2273 108.052 17.3184 107.815 17.5007C107.581 17.6806 107.405 17.9257 107.286 18.2358C107.17 18.5436 107.112 18.8892 107.112 19.2727C107.112 19.661 107.171 20.0137 107.29 20.331C107.41 20.6458 107.588 20.8968 107.822 21.0838C108.059 21.2685 108.353 21.3608 108.703 21.3608ZM115.028 22.1136C114.502 22.1136 114.049 21.9976 113.668 21.7656C113.289 21.5312 112.996 21.2045 112.79 20.7855C112.587 20.3641 112.485 19.8741 112.485 19.3153C112.485 18.7566 112.587 18.2642 112.79 17.8381C112.996 17.4096 113.283 17.0758 113.65 16.8366C114.019 16.5952 114.45 16.4744 114.942 16.4744C115.226 16.4744 115.507 16.5218 115.784 16.6165C116.061 16.7112 116.313 16.8651 116.54 17.0781C116.768 17.2888 116.949 17.5682 117.084 17.9162C117.219 18.2642 117.286 18.6927 117.286 19.2017V19.5568H113.082V18.8324H116.434C116.434 18.5246 116.372 18.25 116.249 18.0085C116.128 17.767 115.956 17.5765 115.731 17.4368C115.508 17.2971 115.245 17.2273 114.942 17.2273C114.609 17.2273 114.32 17.3101 114.076 17.4759C113.834 17.6392 113.649 17.8523 113.518 18.1151C113.388 18.3778 113.323 18.6596 113.323 18.9602V19.4432C113.323 19.8551 113.394 20.2043 113.536 20.4908C113.681 20.7749 113.881 20.9915 114.136 21.1406C114.392 21.2874 114.689 21.3608 115.028 21.3608C115.248 21.3608 115.447 21.33 115.624 21.2685C115.804 21.2045 115.959 21.1098 116.089 20.9844C116.22 20.8565 116.32 20.6979 116.391 20.5085L117.201 20.7358C117.116 21.0104 116.972 21.2519 116.771 21.4602C116.57 21.6662 116.321 21.8272 116.025 21.9432C115.73 22.0568 115.397 22.1136 115.028 22.1136ZM120.933 16.5455V17.2557H118.106V16.5455H120.933ZM118.93 15.2386H119.768V20.4375C119.768 20.6742 119.803 20.8518 119.871 20.9702C119.942 21.0862 120.032 21.1643 120.141 21.2045C120.253 21.2424 120.37 21.2614 120.493 21.2614C120.585 21.2614 120.661 21.2566 120.72 21.2472C120.779 21.2353 120.827 21.2259 120.862 21.2188L121.033 21.9716C120.976 21.9929 120.896 22.0142 120.795 22.0355C120.693 22.0592 120.564 22.071 120.408 22.071C120.171 22.071 119.939 22.0201 119.712 21.9183C119.487 21.8165 119.3 21.6615 119.15 21.4531C119.004 21.2448 118.93 20.982 118.93 20.6648V15.2386ZM124.422 22.1136C123.897 22.1136 123.443 21.9976 123.062 21.7656C122.683 21.5312 122.391 21.2045 122.185 20.7855C121.981 20.3641 121.88 19.8741 121.88 19.3153C121.88 18.7566 121.981 18.2642 122.185 17.8381C122.391 17.4096 122.677 17.0758 123.044 16.8366C123.414 16.5952 123.844 16.4744 124.337 16.4744C124.621 16.4744 124.902 16.5218 125.179 16.6165C125.456 16.7112 125.708 16.8651 125.935 17.0781C126.162 17.2888 126.343 17.5682 126.478 17.9162C126.613 18.2642 126.681 18.6927 126.681 19.2017V19.5568H122.476V18.8324H125.828C125.828 18.5246 125.767 18.25 125.644 18.0085C125.523 17.767 125.35 17.5765 125.125 17.4368C124.903 17.2971 124.64 17.2273 124.337 17.2273C124.003 17.2273 123.714 17.3101 123.47 17.4759C123.229 17.6392 123.043 17.8523 122.913 18.1151C122.783 18.3778 122.718 18.6596 122.718 18.9602V19.4432C122.718 19.8551 122.789 20.2043 122.931 20.4908C123.075 20.7749 123.275 20.9915 123.531 21.1406C123.786 21.2874 124.084 21.3608 124.422 21.3608C124.642 21.3608 124.841 21.33 125.019 21.2685C125.199 21.2045 125.354 21.1098 125.484 20.9844C125.614 20.8565 125.715 20.6979 125.786 20.5085L126.595 20.7358C126.51 21.0104 126.367 21.2519 126.166 21.4602C125.965 21.6662 125.716 21.8272 125.42 21.9432C125.124 22.0568 124.791 22.1136 124.422 22.1136ZM130.171 22.1136C129.66 22.1136 129.22 21.9929 128.85 21.7514C128.481 21.5099 128.197 21.1773 127.998 20.7536C127.799 20.3298 127.7 19.8456 127.7 19.3011C127.7 18.7472 127.802 18.2583 128.005 17.8345C128.211 17.4084 128.498 17.0758 128.865 16.8366C129.234 16.5952 129.665 16.4744 130.157 16.4744C130.541 16.4744 130.886 16.5455 131.194 16.6875C131.502 16.8295 131.754 17.0284 131.951 17.2841C132.147 17.5398 132.269 17.8381 132.316 18.179H131.478C131.414 17.9304 131.272 17.7102 131.052 17.5185C130.834 17.3243 130.541 17.2273 130.171 17.2273C129.845 17.2273 129.558 17.3125 129.312 17.483C129.068 17.651 128.878 17.889 128.74 18.1967C128.605 18.5021 128.538 18.8608 128.538 19.2727C128.538 19.6941 128.604 20.0611 128.737 20.3736C128.872 20.6861 129.061 20.9287 129.305 21.1016C129.551 21.2744 129.84 21.3608 130.171 21.3608C130.389 21.3608 130.587 21.3229 130.764 21.2472C130.942 21.1714 131.092 21.0625 131.215 20.9205C131.339 20.7784 131.426 20.608 131.478 20.4091H132.316C132.269 20.7311 132.152 21.0211 131.965 21.2791C131.78 21.5348 131.535 21.7384 131.23 21.8899C130.927 22.0391 130.574 22.1136 130.171 22.1136ZM135.914 16.5455V17.2557H133.087V16.5455H135.914ZM133.911 15.2386H134.749V20.4375C134.749 20.6742 134.783 20.8518 134.852 20.9702C134.923 21.0862 135.013 21.1643 135.122 21.2045C135.233 21.2424 135.35 21.2614 135.473 21.2614C135.566 21.2614 135.641 21.2566 135.701 21.2472C135.76 21.2353 135.807 21.2259 135.843 21.2188L136.013 21.9716C135.956 21.9929 135.877 22.0142 135.775 22.0355C135.673 22.0592 135.544 22.071 135.388 22.071C135.151 22.071 134.919 22.0201 134.692 21.9183C134.467 21.8165 134.28 21.6615 134.131 21.4531C133.984 21.2448 133.911 20.982 133.911 20.6648V15.2386ZM137.174 22V16.5455H138.012V22H137.174ZM137.6 15.6364C137.437 15.6364 137.296 15.5807 137.178 15.4695C137.062 15.3582 137.004 15.2244 137.004 15.0682C137.004 14.9119 137.062 14.7782 137.178 14.6669C137.296 14.5556 137.437 14.5 137.6 14.5C137.764 14.5 137.903 14.5556 138.019 14.6669C138.138 14.7782 138.197 14.9119 138.197 15.0682C138.197 15.2244 138.138 15.3582 138.019 15.4695C137.903 15.5807 137.764 15.6364 137.6 15.6364ZM141.763 22.1136C141.271 22.1136 140.839 21.9964 140.467 21.7621C140.098 21.5277 139.809 21.1998 139.601 20.7784C139.395 20.357 139.292 19.8646 139.292 19.3011C139.292 18.733 139.395 18.237 139.601 17.8132C139.809 17.3894 140.098 17.0604 140.467 16.826C140.839 16.5916 141.271 16.4744 141.763 16.4744C142.256 16.4744 142.687 16.5916 143.056 16.826C143.428 17.0604 143.716 17.3894 143.922 17.8132C144.131 18.237 144.235 18.733 144.235 19.3011C144.235 19.8646 144.131 20.357 143.922 20.7784C143.716 21.1998 143.428 21.5277 143.056 21.7621C142.687 21.9964 142.256 22.1136 141.763 22.1136ZM141.763 21.3608C142.137 21.3608 142.445 21.2649 142.687 21.0732C142.928 20.8814 143.107 20.6293 143.223 20.3168C143.339 20.0043 143.397 19.6657 143.397 19.3011C143.397 18.9366 143.339 18.5968 143.223 18.282C143.107 17.9671 142.928 17.7126 142.687 17.5185C142.445 17.3243 142.137 17.2273 141.763 17.2273C141.389 17.2273 141.081 17.3243 140.84 17.5185C140.598 17.7126 140.42 17.9671 140.304 18.282C140.188 18.5968 140.13 18.9366 140.13 19.3011C140.13 19.6657 140.188 20.0043 140.304 20.3168C140.42 20.6293 140.598 20.8814 140.84 21.0732C141.081 21.2649 141.389 21.3608 141.763 21.3608ZM146.352 18.7188V22H145.514V16.5455H146.324V17.3977H146.395C146.523 17.1207 146.717 16.8982 146.977 16.7301C147.238 16.5597 147.574 16.4744 147.986 16.4744C148.355 16.4744 148.678 16.5502 148.955 16.7017C149.232 16.8509 149.448 17.0781 149.601 17.3835C149.755 17.6866 149.832 18.0701 149.832 18.5341V22H148.994V18.5909C148.994 18.1624 148.883 17.8286 148.66 17.5895C148.438 17.348 148.132 17.2273 147.744 17.2273C147.477 17.2273 147.238 17.2853 147.027 17.4013C146.819 17.5173 146.654 17.6866 146.533 17.9091C146.413 18.1316 146.352 18.4015 146.352 18.7188ZM155.781 22.1278C155.436 22.1278 155.122 22.0627 154.84 21.9325C154.559 21.8 154.335 21.6094 154.169 21.3608C154.003 21.1098 153.921 20.8068 153.921 20.4517C153.921 20.1392 153.982 19.8859 154.105 19.6918C154.228 19.4953 154.393 19.3414 154.599 19.2301C154.805 19.1188 155.032 19.036 155.281 18.9815C155.532 18.9247 155.784 18.8797 156.037 18.8466C156.368 18.804 156.637 18.772 156.843 18.7507C157.051 18.727 157.203 18.688 157.298 18.6335C157.395 18.5791 157.443 18.4844 157.443 18.3494V18.321C157.443 17.9706 157.347 17.6984 157.156 17.5043C156.966 17.3101 156.679 17.2131 156.293 17.2131C155.893 17.2131 155.579 17.3007 155.352 17.4759C155.124 17.651 154.965 17.8381 154.872 18.0369L154.077 17.7528C154.219 17.4214 154.408 17.1634 154.645 16.9787C154.884 16.7917 155.145 16.6615 155.426 16.5881C155.71 16.5123 155.99 16.4744 156.264 16.4744C156.439 16.4744 156.641 16.4957 156.868 16.5384C157.098 16.5786 157.319 16.6626 157.532 16.7905C157.747 16.9183 157.926 17.1113 158.068 17.3693C158.21 17.6274 158.281 17.973 158.281 18.4062V22H157.443V21.2614H157.401C157.344 21.3797 157.249 21.5064 157.117 21.6413C156.984 21.7763 156.808 21.8911 156.587 21.9858C156.367 22.0805 156.099 22.1278 155.781 22.1278ZM155.909 21.375C156.241 21.375 156.52 21.3099 156.747 21.1797C156.977 21.0495 157.15 20.8814 157.266 20.6754C157.384 20.4695 157.443 20.2528 157.443 20.0256V19.2585C157.408 19.3011 157.33 19.3402 157.209 19.3757C157.091 19.4089 156.953 19.4384 156.797 19.4645C156.643 19.4882 156.493 19.5095 156.346 19.5284C156.202 19.545 156.084 19.5592 155.994 19.571C155.777 19.5994 155.573 19.6456 155.384 19.7095C155.197 19.7711 155.045 19.8646 154.929 19.9901C154.815 20.1132 154.759 20.2812 154.759 20.4943C154.759 20.7855 154.866 21.0057 155.082 21.1548C155.3 21.3016 155.575 21.375 155.909 21.375ZM160.649 18.7188V22H159.811V16.5455H160.621V17.3977H160.692C160.82 17.1207 161.014 16.8982 161.274 16.7301C161.534 16.5597 161.871 16.4744 162.283 16.4744C162.652 16.4744 162.975 16.5502 163.252 16.7017C163.529 16.8509 163.744 17.0781 163.898 17.3835C164.052 17.6866 164.129 18.0701 164.129 18.5341V22H163.291V18.5909C163.291 18.1624 163.18 17.8286 162.957 17.5895C162.735 17.348 162.429 17.2273 162.041 17.2273C161.774 17.2273 161.534 17.2853 161.324 17.4013C161.115 17.5173 160.951 17.6866 160.83 17.9091C160.709 18.1316 160.649 18.4015 160.649 18.7188ZM167.72 22.1136C167.266 22.1136 166.864 21.9988 166.516 21.7692C166.168 21.5372 165.896 21.2105 165.7 20.7891C165.503 20.3653 165.405 19.8646 165.405 19.2869C165.405 18.714 165.503 18.2169 165.7 17.7955C165.896 17.3741 166.17 17.0485 166.52 16.8189C166.87 16.5893 167.275 16.4744 167.734 16.4744C168.09 16.4744 168.37 16.5336 168.576 16.652C168.784 16.768 168.943 16.9006 169.052 17.0497C169.163 17.1965 169.25 17.3172 169.311 17.4119H169.382V14.7273H170.22V22H169.411V21.1619H169.311C169.25 21.2614 169.162 21.3868 169.048 21.5384C168.935 21.6875 168.773 21.8213 168.562 21.9396C168.351 22.0556 168.071 22.1136 167.72 22.1136ZM167.834 21.3608C168.17 21.3608 168.454 21.2732 168.686 21.098C168.918 20.9205 169.095 20.6754 169.215 20.3629C169.336 20.0481 169.396 19.6847 169.396 19.2727C169.396 18.8655 169.337 18.5092 169.219 18.2038C169.1 17.8961 168.925 17.657 168.693 17.4865C168.461 17.3137 168.175 17.2273 167.834 17.2273C167.479 17.2273 167.183 17.3184 166.946 17.5007C166.712 17.6806 166.535 17.9257 166.417 18.2358C166.301 18.5436 166.243 18.8892 166.243 19.2727C166.243 19.661 166.302 20.0137 166.421 20.331C166.541 20.6458 166.719 20.8968 166.953 21.0838C167.19 21.2685 167.484 21.3608 167.834 21.3608ZM176.9 22.1136C176.389 22.1136 175.948 21.9929 175.579 21.7514C175.21 21.5099 174.926 21.1773 174.727 20.7536C174.528 20.3298 174.428 19.8456 174.428 19.3011C174.428 18.7472 174.53 18.2583 174.734 17.8345C174.94 17.4084 175.226 17.0758 175.593 16.8366C175.962 16.5952 176.393 16.4744 176.886 16.4744C177.269 16.4744 177.615 16.5455 177.923 16.6875C178.23 16.8295 178.483 17.0284 178.679 17.2841C178.876 17.5398 178.997 17.8381 179.045 18.179H178.207C178.143 17.9304 178.001 17.7102 177.781 17.5185C177.563 17.3243 177.269 17.2273 176.9 17.2273C176.573 17.2273 176.287 17.3125 176.041 17.483C175.797 17.651 175.606 17.889 175.469 18.1967C175.334 18.5021 175.266 18.8608 175.266 19.2727C175.266 19.6941 175.333 20.0611 175.465 20.3736C175.6 20.6861 175.79 20.9287 176.033 21.1016C176.28 21.2744 176.569 21.3608 176.9 21.3608C177.118 21.3608 177.315 21.3229 177.493 21.2472C177.671 21.1714 177.821 21.0625 177.944 20.9205C178.067 20.7784 178.155 20.608 178.207 20.4091H179.045C178.997 20.7311 178.88 21.0211 178.693 21.2791C178.509 21.5348 178.264 21.7384 177.958 21.8899C177.655 22.0391 177.302 22.1136 176.9 22.1136ZM181.108 18.7188V22H180.27V14.7273H181.108V17.3977H181.179C181.307 17.116 181.499 16.8923 181.754 16.7266C182.012 16.5585 182.356 16.4744 182.784 16.4744C183.156 16.4744 183.481 16.549 183.761 16.6982C184.04 16.8449 184.257 17.071 184.411 17.3764C184.567 17.6795 184.645 18.0653 184.645 18.5341V22H183.807V18.5909C183.807 18.1577 183.694 17.8227 183.47 17.5859C183.247 17.3468 182.938 17.2273 182.543 17.2273C182.268 17.2273 182.022 17.2853 181.804 17.4013C181.589 17.5173 181.418 17.6866 181.293 17.9091C181.17 18.1316 181.108 18.4015 181.108 18.7188ZM188.465 22.1136C187.94 22.1136 187.486 21.9976 187.105 21.7656C186.726 21.5312 186.434 21.2045 186.228 20.7855C186.024 20.3641 185.922 19.8741 185.922 19.3153C185.922 18.7566 186.024 18.2642 186.228 17.8381C186.434 17.4096 186.72 17.0758 187.087 16.8366C187.457 16.5952 187.887 16.4744 188.38 16.4744C188.664 16.4744 188.945 16.5218 189.222 16.6165C189.498 16.7112 189.751 16.8651 189.978 17.0781C190.205 17.2888 190.386 17.5682 190.521 17.9162C190.656 18.2642 190.724 18.6927 190.724 19.2017V19.5568H186.519V18.8324H189.871C189.871 18.5246 189.81 18.25 189.687 18.0085C189.566 17.767 189.393 17.5765 189.168 17.4368C188.946 17.2971 188.683 17.2273 188.38 17.2273C188.046 17.2273 187.757 17.3101 187.513 17.4759C187.272 17.6392 187.086 17.8523 186.956 18.1151C186.826 18.3778 186.761 18.6596 186.761 18.9602V19.4432C186.761 19.8551 186.832 20.2043 186.974 20.4908C187.118 20.7749 187.318 20.9915 187.574 21.1406C187.829 21.2874 188.127 21.3608 188.465 21.3608C188.685 21.3608 188.884 21.33 189.062 21.2685C189.242 21.2045 189.397 21.1098 189.527 20.9844C189.657 20.8565 189.758 20.6979 189.829 20.5085L190.638 20.7358C190.553 21.0104 190.41 21.2519 190.209 21.4602C190.007 21.6662 189.759 21.8272 189.463 21.9432C189.167 22.0568 188.834 22.1136 188.465 22.1136ZM194.214 22.1136C193.703 22.1136 193.263 21.9929 192.893 21.7514C192.524 21.5099 192.24 21.1773 192.041 20.7536C191.842 20.3298 191.743 19.8456 191.743 19.3011C191.743 18.7472 191.845 18.2583 192.048 17.8345C192.254 17.4084 192.541 17.0758 192.908 16.8366C193.277 16.5952 193.708 16.4744 194.2 16.4744C194.584 16.4744 194.929 16.5455 195.237 16.6875C195.545 16.8295 195.797 17.0284 195.994 17.2841C196.19 17.5398 196.312 17.8381 196.359 18.179H195.521C195.457 17.9304 195.315 17.7102 195.095 17.5185C194.877 17.3243 194.584 17.2273 194.214 17.2273C193.888 17.2273 193.601 17.3125 193.355 17.483C193.111 17.651 192.921 17.889 192.783 18.1967C192.648 18.5021 192.581 18.8608 192.581 19.2727C192.581 19.6941 192.647 20.0611 192.78 20.3736C192.915 20.6861 193.104 20.9287 193.348 21.1016C193.594 21.2744 193.883 21.3608 194.214 21.3608C194.432 21.3608 194.63 21.3229 194.807 21.2472C194.985 21.1714 195.135 21.0625 195.258 20.9205C195.382 20.7784 195.469 20.608 195.521 20.4091H196.359C196.312 20.7311 196.195 21.0211 196.008 21.2791C195.823 21.5348 195.578 21.7384 195.273 21.8899C194.97 22.0391 194.617 22.1136 194.214 22.1136ZM198.366 20.0114L198.351 18.9744H198.522L200.908 16.5455H201.945L199.403 19.1165H199.332L198.366 20.0114ZM197.584 22V14.7273H198.422V22H197.584ZM201.05 22L198.92 19.3011L199.516 18.7188L202.116 22H201.05ZM205.69 18.4915V19.2727H202.508V18.4915H205.69ZM86.4765 34L84.8145 28.5455H85.6952L86.8742 32.7216H86.931L88.0958 28.5455H88.9907L90.1412 32.7074H90.1981L91.377 28.5455H92.2577L90.5958 34H89.7719L88.5787 29.8097H88.4935L87.3003 34H86.4765ZM95.396 34.1136C94.9036 34.1136 94.4716 33.9964 94.0999 33.7621C93.7306 33.5277 93.4417 33.1998 93.2334 32.7784C93.0274 32.357 92.9244 31.8646 92.9244 31.3011C92.9244 30.733 93.0274 30.237 93.2334 29.8132C93.4417 29.3894 93.7306 29.0604 94.0999 28.826C94.4716 28.5916 94.9036 28.4744 95.396 28.4744C95.8885 28.4744 96.3193 28.5916 96.6887 28.826C97.0603 29.0604 97.3492 29.3894 97.5551 29.8132C97.7635 30.237 97.8676 30.733 97.8676 31.3011C97.8676 31.8646 97.7635 32.357 97.5551 32.7784C97.3492 33.1998 97.0603 33.5277 96.6887 33.7621C96.3193 33.9964 95.8885 34.1136 95.396 34.1136ZM95.396 33.3608C95.7701 33.3608 96.0779 33.2649 96.3193 33.0732C96.5608 32.8814 96.7396 32.6293 96.8556 32.3168C96.9716 32.0043 97.0296 31.6657 97.0296 31.3011C97.0296 30.9366 96.9716 30.5968 96.8556 30.282C96.7396 29.9671 96.5608 29.7126 96.3193 29.5185C96.0779 29.3243 95.7701 29.2273 95.396 29.2273C95.022 29.2273 94.7142 29.3243 94.4727 29.5185C94.2313 29.7126 94.0525 29.9671 93.9365 30.282C93.8205 30.5968 93.7625 30.9366 93.7625 31.3011C93.7625 31.6657 93.8205 32.0043 93.9365 32.3168C94.0525 32.6293 94.2313 32.8814 94.4727 33.0732C94.7142 33.2649 95.022 33.3608 95.396 33.3608ZM99.1469 34V28.5455H99.9566V29.3693H100.013C100.113 29.0994 100.293 28.8804 100.553 28.7124C100.814 28.5443 101.107 28.4602 101.434 28.4602C101.495 28.4602 101.572 28.4614 101.665 28.4638C101.757 28.4661 101.827 28.4697 101.874 28.4744V29.3267C101.846 29.3196 101.781 29.3089 101.679 29.2947C101.579 29.2782 101.474 29.2699 101.363 29.2699C101.098 29.2699 100.861 29.3255 100.653 29.4368C100.447 29.5457 100.283 29.6972 100.163 29.8913C100.044 30.0831 99.985 30.3021 99.985 30.5483V34H99.1469ZM105.582 28.5455V29.2557H102.755V28.5455H105.582ZM103.579 27.2386H104.417V32.4375C104.417 32.6742 104.451 32.8518 104.52 32.9702C104.591 33.0862 104.681 33.1643 104.79 33.2045C104.901 33.2424 105.018 33.2614 105.141 33.2614C105.234 33.2614 105.309 33.2566 105.369 33.2472C105.428 33.2353 105.475 33.2259 105.511 33.2188L105.681 33.9716C105.624 33.9929 105.545 34.0142 105.443 34.0355C105.341 34.0592 105.212 34.071 105.056 34.071C104.819 34.071 104.587 34.0201 104.36 33.9183C104.135 33.8165 103.948 33.6615 103.799 33.4531C103.652 33.2448 103.579 32.982 103.579 32.6648V27.2386ZM107.797 30.7188V34H106.959V26.7273H107.797V29.3977H107.869C107.996 29.116 108.188 28.8923 108.444 28.7266C108.702 28.5585 109.045 28.4744 109.474 28.4744C109.845 28.4744 110.171 28.549 110.45 28.6982C110.73 28.8449 110.946 29.071 111.1 29.3764C111.256 29.6795 111.334 30.0653 111.334 30.5341V34H110.496V30.5909C110.496 30.1577 110.384 29.8227 110.159 29.5859C109.936 29.3468 109.628 29.2273 109.232 29.2273C108.958 29.2273 108.711 29.2853 108.494 29.4013C108.278 29.5173 108.108 29.6866 107.982 29.9091C107.859 30.1316 107.797 30.4015 107.797 30.7188ZM112.868 34V28.5455H113.706V34H112.868ZM113.294 27.6364C113.13 27.6364 112.99 27.5807 112.871 27.4695C112.755 27.3582 112.697 27.2244 112.697 27.0682C112.697 26.9119 112.755 26.7782 112.871 26.6669C112.99 26.5556 113.13 26.5 113.294 26.5C113.457 26.5 113.597 26.5556 113.713 26.6669C113.831 26.7782 113.89 26.9119 113.89 27.0682C113.89 27.2244 113.831 27.3582 113.713 27.4695C113.597 27.5807 113.457 27.6364 113.294 27.6364ZM116.079 30.7188V34H115.241V28.5455H116.05V29.3977H116.121C116.249 29.1207 116.443 28.8982 116.704 28.7301C116.964 28.5597 117.3 28.4744 117.712 28.4744C118.082 28.4744 118.405 28.5502 118.682 28.7017C118.959 28.8509 119.174 29.0781 119.328 29.3835C119.482 29.6866 119.559 30.0701 119.559 30.5341V34H118.721V30.5909C118.721 30.1624 118.61 29.8286 118.387 29.5895C118.164 29.348 117.859 29.2273 117.471 29.2273C117.203 29.2273 116.964 29.2853 116.753 29.4013C116.545 29.5173 116.381 29.6866 116.26 29.9091C116.139 30.1316 116.079 30.4015 116.079 30.7188ZM123.377 34.1136C122.852 34.1136 122.398 33.9976 122.017 33.7656C121.638 33.5312 121.346 33.2045 121.14 32.7855C120.936 32.3641 120.835 31.8741 120.835 31.3153C120.835 30.7566 120.936 30.2642 121.14 29.8381C121.346 29.4096 121.632 29.0758 121.999 28.8366C122.369 28.5952 122.8 28.4744 123.292 28.4744C123.576 28.4744 123.857 28.5218 124.134 28.6165C124.411 28.7112 124.663 28.8651 124.89 29.0781C125.117 29.2888 125.298 29.5682 125.433 29.9162C125.568 30.2642 125.636 30.6927 125.636 31.2017V31.5568H121.431V30.8324H124.783C124.783 30.5246 124.722 30.25 124.599 30.0085C124.478 29.767 124.305 29.5765 124.08 29.4368C123.858 29.2971 123.595 29.2273 123.292 29.2273C122.958 29.2273 122.669 29.3101 122.426 29.4759C122.184 29.6392 121.998 29.8523 121.868 30.1151C121.738 30.3778 121.673 30.6596 121.673 30.9602V31.4432C121.673 31.8551 121.744 32.2043 121.886 32.4908C122.03 32.7749 122.23 32.9915 122.486 33.1406C122.742 33.2874 123.039 33.3608 123.377 33.3608C123.597 33.3608 123.796 33.33 123.974 33.2685C124.154 33.2045 124.309 33.1098 124.439 32.9844C124.569 32.8565 124.67 32.6979 124.741 32.5085L125.551 32.7358C125.465 33.0104 125.322 33.2519 125.121 33.4602C124.92 33.6662 124.671 33.8272 124.375 33.9432C124.079 34.0568 123.747 34.1136 123.377 34.1136ZM130.774 29.767L130.021 29.9801C129.974 29.8546 129.904 29.7327 129.812 29.6143C129.722 29.4936 129.599 29.3942 129.443 29.3161C129.286 29.2379 129.086 29.1989 128.842 29.1989C128.509 29.1989 128.23 29.2758 128.008 29.4297C127.788 29.5812 127.678 29.7741 127.678 30.0085C127.678 30.2169 127.753 30.3814 127.905 30.5021C128.056 30.6229 128.293 30.7235 128.615 30.804L129.425 31.0028C129.912 31.1212 130.276 31.3023 130.515 31.5462C130.754 31.7876 130.874 32.099 130.874 32.4801C130.874 32.7926 130.784 33.072 130.604 33.3182C130.426 33.5644 130.178 33.7585 129.858 33.9006C129.538 34.0426 129.167 34.1136 128.743 34.1136C128.187 34.1136 127.726 33.9929 127.362 33.7514C126.997 33.5099 126.766 33.1572 126.669 32.6932L127.465 32.4943C127.54 32.7879 127.684 33.008 127.894 33.1548C128.107 33.3016 128.386 33.375 128.729 33.375C129.119 33.375 129.43 33.2921 129.659 33.1264C129.891 32.9583 130.007 32.7571 130.007 32.5227C130.007 32.3333 129.941 32.1747 129.808 32.0469C129.676 31.9167 129.472 31.8196 129.198 31.7557L128.288 31.5426C127.789 31.4242 127.422 31.2408 127.188 30.9922C126.956 30.7412 126.84 30.4276 126.84 30.0511C126.84 29.7434 126.926 29.4711 127.099 29.2344C127.274 28.9976 127.512 28.8118 127.813 28.6768C128.116 28.5419 128.459 28.4744 128.842 28.4744C129.382 28.4744 129.806 28.5928 130.114 28.8295C130.424 29.0663 130.644 29.3788 130.774 29.767ZM135.999 29.767L135.246 29.9801C135.199 29.8546 135.129 29.7327 135.036 29.6143C134.947 29.4936 134.823 29.3942 134.667 29.3161C134.511 29.2379 134.311 29.1989 134.067 29.1989C133.733 29.1989 133.455 29.2758 133.233 29.4297C133.012 29.5812 132.902 29.7741 132.902 30.0085C132.902 30.2169 132.978 30.3814 133.13 30.5021C133.281 30.6229 133.518 30.7235 133.84 30.804L134.649 31.0028C135.137 31.1212 135.501 31.3023 135.74 31.5462C135.979 31.7876 136.098 32.099 136.098 32.4801C136.098 32.7926 136.008 33.072 135.828 33.3182C135.651 33.5644 135.402 33.7585 135.083 33.9006C134.763 34.0426 134.391 34.1136 133.968 34.1136C133.411 34.1136 132.951 33.9929 132.586 33.7514C132.222 33.5099 131.991 33.1572 131.894 32.6932L132.689 32.4943C132.765 32.7879 132.908 33.008 133.119 33.1548C133.332 33.3016 133.61 33.375 133.953 33.375C134.344 33.375 134.654 33.2921 134.884 33.1264C135.116 32.9583 135.232 32.7571 135.232 32.5227C135.232 32.3333 135.166 32.1747 135.033 32.0469C134.9 31.9167 134.697 31.8196 134.422 31.7557L133.513 31.5426C133.014 31.4242 132.647 31.2408 132.412 30.9922C132.18 30.7412 132.064 30.4276 132.064 30.0511C132.064 29.7434 132.151 29.4711 132.323 29.2344C132.499 28.9976 132.737 28.8118 133.037 28.6768C133.34 28.5419 133.684 28.4744 134.067 28.4744C134.607 28.4744 135.031 28.5928 135.338 28.8295C135.648 29.0663 135.869 29.3788 135.999 29.767ZM140.172 36.0455V28.5455H140.982V29.4119H141.081C141.143 29.3172 141.228 29.1965 141.337 29.0497C141.448 28.9006 141.607 28.768 141.813 28.652C142.021 28.5336 142.303 28.4744 142.658 28.4744C143.117 28.4744 143.522 28.5893 143.873 28.8189C144.223 29.0485 144.496 29.3741 144.693 29.7955C144.889 30.2169 144.988 30.714 144.988 31.2869C144.988 31.8646 144.889 32.3653 144.693 32.7891C144.496 33.2105 144.224 33.5372 143.876 33.7692C143.528 33.9988 143.127 34.1136 142.672 34.1136C142.322 34.1136 142.041 34.0556 141.831 33.9396C141.62 33.8213 141.458 33.6875 141.344 33.5384C141.231 33.3868 141.143 33.2614 141.081 33.1619H141.01V36.0455H140.172ZM140.996 31.2727C140.996 31.6847 141.057 32.0481 141.177 32.3629C141.298 32.6754 141.474 32.9205 141.706 33.098C141.938 33.2732 142.223 33.3608 142.559 33.3608C142.909 33.3608 143.201 33.2685 143.436 33.0838C143.673 32.8968 143.85 32.6458 143.968 32.331C144.089 32.0137 144.15 31.661 144.15 31.2727C144.15 30.8892 144.09 30.5436 143.972 30.2358C143.856 29.9257 143.68 29.6806 143.443 29.5007C143.209 29.3184 142.914 29.2273 142.559 29.2273C142.218 29.2273 141.931 29.3137 141.699 29.4865C141.467 29.657 141.292 29.8961 141.174 30.2038C141.055 30.5092 140.996 30.8655 140.996 31.2727ZM146.266 34V28.5455H147.076V29.3693H147.133C147.232 29.0994 147.412 28.8804 147.672 28.7124C147.933 28.5443 148.226 28.4602 148.553 28.4602C148.615 28.4602 148.691 28.4614 148.784 28.4638C148.876 28.4661 148.946 28.4697 148.993 28.4744V29.3267C148.965 29.3196 148.9 29.3089 148.798 29.2947C148.699 29.2782 148.593 29.2699 148.482 29.2699C148.217 29.2699 147.98 29.3255 147.772 29.4368C147.566 29.5457 147.402 29.6972 147.282 29.8913C147.163 30.0831 147.104 30.3021 147.104 30.5483V34H146.266ZM149.987 34V28.5455H150.825V34H149.987ZM150.413 27.6364C150.25 27.6364 150.109 27.5807 149.99 27.4695C149.874 27.3582 149.816 27.2244 149.816 27.0682C149.816 26.9119 149.874 26.7782 149.99 26.6669C150.109 26.5556 150.25 26.5 150.413 26.5C150.576 26.5 150.716 26.5556 150.832 26.6669C150.95 26.7782 151.009 26.9119 151.009 27.0682C151.009 27.2244 150.95 27.3582 150.832 27.4695C150.716 27.5807 150.576 27.6364 150.413 27.6364ZM154.576 34.1136C154.083 34.1136 153.651 33.9964 153.28 33.7621C152.91 33.5277 152.621 33.1998 152.413 32.7784C152.207 32.357 152.104 31.8646 152.104 31.3011C152.104 30.733 152.207 30.237 152.413 29.8132C152.621 29.3894 152.91 29.0604 153.28 28.826C153.651 28.5916 154.083 28.4744 154.576 28.4744C155.068 28.4744 155.499 28.5916 155.868 28.826C156.24 29.0604 156.529 29.3894 156.735 29.8132C156.943 30.237 157.047 30.733 157.047 31.3011C157.047 31.8646 156.943 32.357 156.735 32.7784C156.529 33.1998 156.24 33.5277 155.868 33.7621C155.499 33.9964 155.068 34.1136 154.576 34.1136ZM154.576 33.3608C154.95 33.3608 155.258 33.2649 155.499 33.0732C155.741 32.8814 155.919 32.6293 156.035 32.3168C156.151 32.0043 156.209 31.6657 156.209 31.3011C156.209 30.9366 156.151 30.5968 156.035 30.282C155.919 29.9671 155.741 29.7126 155.499 29.5185C155.258 29.3243 154.95 29.2273 154.576 29.2273C154.202 29.2273 153.894 29.3243 153.652 29.5185C153.411 29.7126 153.232 29.9671 153.116 30.282C153 30.5968 152.942 30.9366 152.942 31.3011C152.942 31.6657 153 32.0043 153.116 32.3168C153.232 32.6293 153.411 32.8814 153.652 33.0732C153.894 33.2649 154.202 33.3608 154.576 33.3608ZM158.327 34V28.5455H159.136V29.3693H159.193C159.293 29.0994 159.472 28.8804 159.733 28.7124C159.993 28.5443 160.287 28.4602 160.614 28.4602C160.675 28.4602 160.752 28.4614 160.844 28.4638C160.937 28.4661 161.007 28.4697 161.054 28.4744V29.3267C161.025 29.3196 160.96 29.3089 160.859 29.2947C160.759 29.2782 160.654 29.2699 160.543 29.2699C160.277 29.2699 160.041 29.3255 159.832 29.4368C159.626 29.5457 159.463 29.6972 159.342 29.8913C159.224 30.0831 159.165 30.3021 159.165 30.5483V34H158.327ZM162.047 34V28.5455H162.885V34H162.047ZM162.473 27.6364C162.31 27.6364 162.169 27.5807 162.051 27.4695C161.935 27.3582 161.877 27.2244 161.877 27.0682C161.877 26.9119 161.935 26.7782 162.051 26.6669C162.169 26.5556 162.31 26.5 162.473 26.5C162.637 26.5 162.776 26.5556 162.892 26.6669C163.011 26.7782 163.07 26.9119 163.07 27.0682C163.07 27.2244 163.011 27.3582 162.892 27.4695C162.776 27.5807 162.637 27.6364 162.473 27.6364ZM166.793 28.5455V29.2557H163.966V28.5455H166.793ZM164.79 27.2386H165.628V32.4375C165.628 32.6742 165.662 32.8518 165.731 32.9702C165.802 33.0862 165.892 33.1643 166.001 33.2045C166.112 33.2424 166.229 33.2614 166.352 33.2614C166.445 33.2614 166.52 33.2566 166.579 33.2472C166.639 33.2353 166.686 33.2259 166.722 33.2188L166.892 33.9716C166.835 33.9929 166.756 34.0142 166.654 34.0355C166.552 34.0592 166.423 34.071 166.267 34.071C166.03 34.071 165.798 34.0201 165.571 33.9183C165.346 33.8165 165.159 33.6615 165.01 33.4531C164.863 33.2448 164.79 32.982 164.79 32.6648V27.2386ZM168.053 34V28.5455H168.891V34H168.053ZM168.479 27.6364C168.316 27.6364 168.175 27.5807 168.057 27.4695C167.941 27.3582 167.883 27.2244 167.883 27.0682C167.883 26.9119 167.941 26.7782 168.057 26.6669C168.175 26.5556 168.316 26.5 168.479 26.5C168.643 26.5 168.782 26.5556 168.898 26.6669C169.017 26.7782 169.076 26.9119 169.076 27.0682C169.076 27.2244 169.017 27.3582 168.898 27.4695C168.782 27.5807 168.643 27.6364 168.479 27.6364ZM170.27 34V33.3608L173.367 29.3835V29.3267H170.369V28.5455H174.446V29.2131L171.435 33.1619V33.2188H174.546V34H170.27ZM177.441 34.1278C177.096 34.1278 176.782 34.0627 176.5 33.9325C176.219 33.8 175.995 33.6094 175.829 33.3608C175.664 33.1098 175.581 32.8068 175.581 32.4517C175.581 32.1392 175.642 31.8859 175.765 31.6918C175.888 31.4953 176.053 31.3414 176.259 31.2301C176.465 31.1188 176.692 31.036 176.941 30.9815C177.192 30.9247 177.444 30.8797 177.697 30.8466C178.029 30.804 178.297 30.772 178.503 30.7507C178.712 30.727 178.863 30.688 178.958 30.6335C179.055 30.5791 179.103 30.4844 179.103 30.3494V30.321C179.103 29.9706 179.008 29.6984 178.816 29.5043C178.626 29.3101 178.339 29.2131 177.953 29.2131C177.553 29.2131 177.239 29.3007 177.012 29.4759C176.785 29.651 176.625 29.8381 176.532 30.0369L175.737 29.7528C175.879 29.4214 176.068 29.1634 176.305 28.9787C176.544 28.7917 176.805 28.6615 177.086 28.5881C177.37 28.5123 177.65 28.4744 177.924 28.4744C178.1 28.4744 178.301 28.4957 178.528 28.5384C178.758 28.5786 178.979 28.6626 179.192 28.7905C179.408 28.9183 179.586 29.1113 179.728 29.3693C179.87 29.6274 179.941 29.973 179.941 30.4062V34H179.103V33.2614H179.061C179.004 33.3797 178.909 33.5064 178.777 33.6413C178.644 33.7763 178.468 33.8911 178.248 33.9858C178.027 34.0805 177.759 34.1278 177.441 34.1278ZM177.569 33.375C177.901 33.375 178.18 33.3099 178.407 33.1797C178.637 33.0495 178.81 32.8814 178.926 32.6754C179.044 32.4695 179.103 32.2528 179.103 32.0256V31.2585C179.068 31.3011 178.99 31.3402 178.869 31.3757C178.751 31.4089 178.613 31.4384 178.457 31.4645C178.303 31.4882 178.153 31.5095 178.006 31.5284C177.862 31.545 177.745 31.5592 177.655 31.571C177.437 31.5994 177.233 31.6456 177.044 31.7095C176.857 31.7711 176.705 31.8646 176.589 31.9901C176.476 32.1132 176.419 32.2812 176.419 32.4943C176.419 32.7855 176.526 33.0057 176.742 33.1548C176.96 33.3016 177.236 33.375 177.569 33.375ZM183.843 28.5455V29.2557H181.017V28.5455H183.843ZM181.84 27.2386H182.679V32.4375C182.679 32.6742 182.713 32.8518 182.782 32.9702C182.853 33.0862 182.943 33.1643 183.051 33.2045C183.163 33.2424 183.28 33.2614 183.403 33.2614C183.495 33.2614 183.571 33.2566 183.63 33.2472C183.689 33.2353 183.737 33.2259 183.772 33.2188L183.943 33.9716C183.886 33.9929 183.807 34.0142 183.705 34.0355C183.603 34.0592 183.474 34.071 183.318 34.071C183.081 34.071 182.849 34.0201 182.622 33.9183C182.397 33.8165 182.21 33.6615 182.061 33.4531C181.914 33.2448 181.84 32.982 181.84 32.6648V27.2386ZM185.104 34V28.5455H185.942V34H185.104ZM185.53 27.6364C185.367 27.6364 185.226 27.5807 185.108 27.4695C184.992 27.3582 184.934 27.2244 184.934 27.0682C184.934 26.9119 184.992 26.7782 185.108 26.6669C185.226 26.5556 185.367 26.5 185.53 26.5C185.693 26.5 185.833 26.5556 185.949 26.6669C186.068 26.7782 186.127 26.9119 186.127 27.0682C186.127 27.2244 186.068 27.3582 185.949 27.4695C185.833 27.5807 185.693 27.6364 185.53 27.6364ZM189.693 34.1136C189.2 34.1136 188.768 33.9964 188.397 33.7621C188.027 33.5277 187.739 33.1998 187.53 32.7784C187.324 32.357 187.221 31.8646 187.221 31.3011C187.221 30.733 187.324 30.237 187.53 29.8132C187.739 29.3894 188.027 29.0604 188.397 28.826C188.768 28.5916 189.2 28.4744 189.693 28.4744C190.185 28.4744 190.616 28.5916 190.986 28.826C191.357 29.0604 191.646 29.3894 191.852 29.8132C192.06 30.237 192.165 30.733 192.165 31.3011C192.165 31.8646 192.06 32.357 191.852 32.7784C191.646 33.1998 191.357 33.5277 190.986 33.7621C190.616 33.9964 190.185 34.1136 189.693 34.1136ZM189.693 33.3608C190.067 33.3608 190.375 33.2649 190.616 33.0732C190.858 32.8814 191.036 32.6293 191.152 32.3168C191.268 32.0043 191.326 31.6657 191.326 31.3011C191.326 30.9366 191.268 30.5968 191.152 30.282C191.036 29.9671 190.858 29.7126 190.616 29.5185C190.375 29.3243 190.067 29.2273 189.693 29.2273C189.319 29.2273 189.011 29.3243 188.77 29.5185C188.528 29.7126 188.349 29.9671 188.233 30.282C188.117 30.5968 188.059 30.9366 188.059 31.3011C188.059 31.6657 188.117 32.0043 188.233 32.3168C188.349 32.6293 188.528 32.8814 188.77 33.0732C189.011 33.2649 189.319 33.3608 189.693 33.3608ZM194.282 30.7188V34H193.444V28.5455H194.253V29.3977H194.324C194.452 29.1207 194.646 28.8982 194.907 28.7301C195.167 28.5597 195.503 28.4744 195.915 28.4744C196.285 28.4744 196.608 28.5502 196.885 28.7017C197.162 28.8509 197.377 29.0781 197.531 29.3835C197.685 29.6866 197.762 30.0701 197.762 30.5341V34H196.924V30.5909C196.924 30.1624 196.813 29.8286 196.59 29.5895C196.368 29.348 196.062 29.2273 195.674 29.2273C195.406 29.2273 195.167 29.2853 194.957 29.4013C194.748 29.5173 194.584 29.6866 194.463 29.9091C194.342 30.1316 194.282 30.4015 194.282 30.7188Z" fill="black"/>
<path d="M99.2908 82V74.7273H103.68V75.5085H100.172V77.9659H103.453V78.7472H100.172V81.2188H103.737V82H99.2908ZM109.614 76.5455L107.597 82H106.745L104.728 76.5455H105.637L107.142 80.892H107.199L108.705 76.5455H109.614ZM110.72 82V76.5455H111.558V82H110.72ZM111.146 75.6364C110.983 75.6364 110.842 75.5807 110.724 75.4695C110.608 75.3582 110.55 75.2244 110.55 75.0682C110.55 74.9119 110.608 74.7782 110.724 74.6669C110.842 74.5556 110.983 74.5 111.146 74.5C111.31 74.5 111.449 74.5556 111.565 74.6669C111.684 74.7782 111.743 74.9119 111.743 75.0682C111.743 75.2244 111.684 75.3582 111.565 75.4695C111.449 75.5807 111.31 75.6364 111.146 75.6364ZM115.153 82.1136C114.698 82.1136 114.297 81.9988 113.949 81.7692C113.601 81.5372 113.329 81.2105 113.132 80.7891C112.936 80.3653 112.838 79.8646 112.838 79.2869C112.838 78.714 112.936 78.2169 113.132 77.7955C113.329 77.3741 113.602 77.0485 113.953 76.8189C114.303 76.5893 114.708 76.4744 115.167 76.4744C115.522 76.4744 115.803 76.5336 116.009 76.652C116.217 76.768 116.376 76.9006 116.485 77.0497C116.596 77.1965 116.682 77.3172 116.744 77.4119H116.815V74.7273H117.653V82H116.843V81.1619H116.744C116.682 81.2614 116.595 81.3868 116.481 81.5384C116.367 81.6875 116.205 81.8213 115.994 81.9396C115.784 82.0556 115.503 82.1136 115.153 82.1136ZM115.267 81.3608C115.603 81.3608 115.887 81.2732 116.119 81.098C116.351 80.9205 116.527 80.6754 116.648 80.3629C116.769 80.0481 116.829 79.6847 116.829 79.2727C116.829 78.8655 116.77 78.5092 116.651 78.2038C116.533 77.8961 116.358 77.657 116.126 77.4865C115.894 77.3137 115.607 77.2273 115.267 77.2273C114.911 77.2273 114.615 77.3184 114.379 77.5007C114.144 77.6806 113.968 77.9257 113.85 78.2358C113.734 78.5436 113.676 78.8892 113.676 79.2727C113.676 79.661 113.735 80.0137 113.853 80.331C113.974 80.6458 114.151 80.8968 114.386 81.0838C114.623 81.2685 114.916 81.3608 115.267 81.3608ZM121.591 82.1136C121.066 82.1136 120.612 81.9976 120.231 81.7656C119.852 81.5312 119.56 81.2045 119.354 80.7855C119.15 80.3641 119.048 79.8741 119.048 79.3153C119.048 78.7566 119.15 78.2642 119.354 77.8381C119.56 77.4096 119.846 77.0758 120.213 76.8366C120.583 76.5952 121.013 76.4744 121.506 76.4744C121.79 76.4744 122.07 76.5218 122.347 76.6165C122.624 76.7112 122.877 76.8651 123.104 77.0781C123.331 77.2888 123.512 77.5682 123.647 77.9162C123.782 78.2642 123.85 78.6927 123.85 79.2017V79.5568H119.645V78.8324H122.997C122.997 78.5246 122.936 78.25 122.813 78.0085C122.692 77.767 122.519 77.5765 122.294 77.4368C122.072 77.2971 121.809 77.2273 121.506 77.2273C121.172 77.2273 120.883 77.3101 120.639 77.4759C120.398 77.6392 120.212 77.8523 120.082 78.1151C119.952 78.3778 119.887 78.6596 119.887 78.9602V79.4432C119.887 79.8551 119.958 80.2043 120.1 80.4908C120.244 80.7749 120.444 80.9915 120.7 81.1406C120.955 81.2874 121.253 81.3608 121.591 81.3608C121.811 81.3608 122.01 81.33 122.188 81.2685C122.368 81.2045 122.523 81.1098 122.653 80.9844C122.783 80.8565 122.884 80.6979 122.955 80.5085L123.764 80.7358C123.679 81.0104 123.536 81.2519 123.335 81.4602C123.133 81.6662 122.885 81.8272 122.589 81.9432C122.293 82.0568 121.96 82.1136 121.591 82.1136ZM125.963 78.7188V82H125.124V76.5455H125.934V77.3977H126.005C126.133 77.1207 126.327 76.8982 126.588 76.7301C126.848 76.5597 127.184 76.4744 127.596 76.4744C127.965 76.4744 128.289 76.5502 128.566 76.7017C128.843 76.8509 129.058 77.0781 129.212 77.3835C129.366 77.6866 129.443 78.0701 129.443 78.5341V82H128.605V78.5909C128.605 78.1624 128.493 77.8286 128.271 77.5895C128.048 77.348 127.743 77.2273 127.355 77.2273C127.087 77.2273 126.848 77.2853 126.637 77.4013C126.429 77.5173 126.264 77.6866 126.144 77.9091C126.023 78.1316 125.963 78.4015 125.963 78.7188ZM133.19 82.1136C132.679 82.1136 132.238 81.9929 131.869 81.7514C131.5 81.5099 131.216 81.1773 131.017 80.7536C130.818 80.3298 130.718 79.8456 130.718 79.3011C130.718 78.7472 130.82 78.2583 131.024 77.8345C131.23 77.4084 131.516 77.0758 131.883 76.8366C132.252 76.5952 132.683 76.4744 133.176 76.4744C133.559 76.4744 133.905 76.5455 134.213 76.6875C134.52 76.8295 134.773 77.0284 134.969 77.2841C135.166 77.5398 135.288 77.8381 135.335 78.179H134.497C134.433 77.9304 134.291 77.7102 134.071 77.5185C133.853 77.3243 133.559 77.2273 133.19 77.2273C132.863 77.2273 132.577 77.3125 132.331 77.483C132.087 77.651 131.896 77.889 131.759 78.1967C131.624 78.5021 131.556 78.8608 131.556 79.2727C131.556 79.6941 131.623 80.0611 131.755 80.3736C131.89 80.6861 132.08 80.9287 132.324 81.1016C132.57 81.2744 132.859 81.3608 133.19 81.3608C133.408 81.3608 133.605 81.3229 133.783 81.2472C133.961 81.1714 134.111 81.0625 134.234 80.9205C134.357 80.7784 134.445 80.608 134.497 80.4091H135.335C135.288 80.7311 135.17 81.0211 134.983 81.2791C134.799 81.5348 134.554 81.7384 134.248 81.8899C133.945 82.0391 133.592 82.1136 133.19 82.1136ZM138.847 82.1136C138.321 82.1136 137.868 81.9976 137.487 81.7656C137.108 81.5312 136.816 81.2045 136.61 80.7855C136.406 80.3641 136.304 79.8741 136.304 79.3153C136.304 78.7566 136.406 78.2642 136.61 77.8381C136.816 77.4096 137.102 77.0758 137.469 76.8366C137.838 76.5952 138.269 76.4744 138.762 76.4744C139.046 76.4744 139.326 76.5218 139.603 76.6165C139.88 76.7112 140.132 76.8651 140.36 77.0781C140.587 77.2888 140.768 77.5682 140.903 77.9162C141.038 78.2642 141.105 78.6927 141.105 79.2017V79.5568H136.901V78.8324H140.253C140.253 78.5246 140.192 78.25 140.069 78.0085C139.948 77.767 139.775 77.5765 139.55 77.4368C139.328 77.2971 139.065 77.2273 138.762 77.2273C138.428 77.2273 138.139 77.3101 137.895 77.4759C137.654 77.6392 137.468 77.8523 137.338 78.1151C137.208 78.3778 137.142 78.6596 137.142 78.9602V79.4432C137.142 79.8551 137.213 80.2043 137.355 80.4908C137.5 80.7749 137.7 80.9915 137.956 81.1406C138.211 81.2874 138.508 81.3608 138.847 81.3608C139.067 81.3608 139.266 81.33 139.444 81.2685C139.623 81.2045 139.779 81.1098 139.909 80.9844C140.039 80.8565 140.14 80.6979 140.211 80.5085L141.02 80.7358C140.935 81.0104 140.792 81.2519 140.591 81.4602C140.389 81.6662 140.141 81.8272 139.845 81.9432C139.549 82.0568 139.216 82.1136 138.847 82.1136ZM145.193 82V76.5455H146.002V77.3693H146.059C146.159 77.0994 146.339 76.8804 146.599 76.7124C146.859 76.5443 147.153 76.4602 147.48 76.4602C147.541 76.4602 147.618 76.4614 147.711 76.4638C147.803 76.4661 147.873 76.4697 147.92 76.4744V77.3267C147.892 77.3196 147.827 77.3089 147.725 77.2947C147.625 77.2782 147.52 77.2699 147.409 77.2699C147.144 77.2699 146.907 77.3255 146.699 77.4368C146.493 77.5457 146.329 77.6972 146.208 77.8913C146.09 78.0831 146.031 78.3021 146.031 78.5483V82H145.193ZM151.034 82.1136C150.509 82.1136 150.056 81.9976 149.674 81.7656C149.296 81.5312 149.003 81.2045 148.797 80.7855C148.594 80.3641 148.492 79.8741 148.492 79.3153C148.492 78.7566 148.594 78.2642 148.797 77.8381C149.003 77.4096 149.29 77.0758 149.657 76.8366C150.026 76.5952 150.457 76.4744 150.949 76.4744C151.233 76.4744 151.514 76.5218 151.791 76.6165C152.068 76.7112 152.32 76.8651 152.547 77.0781C152.775 77.2888 152.956 77.5682 153.091 77.9162C153.225 78.2642 153.293 78.6927 153.293 79.2017V79.5568H149.088V78.8324H152.441C152.441 78.5246 152.379 78.25 152.256 78.0085C152.135 77.767 151.962 77.5765 151.738 77.4368C151.515 77.2971 151.252 77.2273 150.949 77.2273C150.615 77.2273 150.327 77.3101 150.083 77.4759C149.841 77.6392 149.655 77.8523 149.525 78.1151C149.395 78.3778 149.33 78.6596 149.33 78.9602V79.4432C149.33 79.8551 149.401 80.2043 149.543 80.4908C149.687 80.7749 149.887 80.9915 150.143 81.1406C150.399 81.2874 150.696 81.3608 151.034 81.3608C151.255 81.3608 151.453 81.33 151.631 81.2685C151.811 81.2045 151.966 81.1098 152.096 80.9844C152.226 80.8565 152.327 80.6979 152.398 80.5085L153.208 80.7358C153.123 81.0104 152.979 81.2519 152.778 81.4602C152.577 81.6662 152.328 81.8272 152.032 81.9432C151.736 82.0568 151.404 82.1136 151.034 82.1136ZM156.94 76.5455V77.2557H154.113V76.5455H156.94ZM154.937 75.2386H155.775V80.4375C155.775 80.6742 155.81 80.8518 155.878 80.9702C155.949 81.0862 156.039 81.1643 156.148 81.2045C156.259 81.2424 156.377 81.2614 156.5 81.2614C156.592 81.2614 156.668 81.2566 156.727 81.2472C156.786 81.2353 156.833 81.2259 156.869 81.2188L157.039 81.9716C156.983 81.9929 156.903 82.0142 156.801 82.0355C156.7 82.0592 156.571 82.071 156.414 82.071C156.178 82.071 155.946 82.0201 155.718 81.9183C155.493 81.8165 155.306 81.6615 155.157 81.4531C155.011 81.2448 154.937 80.982 154.937 80.6648V75.2386ZM158.201 82V76.5455H159.01V77.3693H159.067C159.167 77.0994 159.346 76.8804 159.607 76.7124C159.867 76.5443 160.161 76.4602 160.488 76.4602C160.549 76.4602 160.626 76.4614 160.718 76.4638C160.811 76.4661 160.881 76.4697 160.928 76.4744V77.3267C160.9 77.3196 160.834 77.3089 160.733 77.2947C160.633 77.2782 160.528 77.2699 160.417 77.2699C160.151 77.2699 159.915 77.3255 159.706 77.4368C159.5 77.5457 159.337 77.6972 159.216 77.8913C159.098 78.0831 159.039 78.3021 159.039 78.5483V82H158.201ZM161.921 82V76.5455H162.759V82H161.921ZM162.347 75.6364C162.184 75.6364 162.043 75.5807 161.925 75.4695C161.809 75.3582 161.751 75.2244 161.751 75.0682C161.751 74.9119 161.809 74.7782 161.925 74.6669C162.043 74.5556 162.184 74.5 162.347 74.5C162.511 74.5 162.651 74.5556 162.767 74.6669C162.885 74.7782 162.944 74.9119 162.944 75.0682C162.944 75.2244 162.885 75.3582 162.767 75.4695C162.651 75.5807 162.511 75.6364 162.347 75.6364ZM166.581 82.1136C166.056 82.1136 165.602 81.9976 165.221 81.7656C164.842 81.5312 164.55 81.2045 164.344 80.7855C164.141 80.3641 164.039 79.8741 164.039 79.3153C164.039 78.7566 164.141 78.2642 164.344 77.8381C164.55 77.4096 164.837 77.0758 165.203 76.8366C165.573 76.5952 166.004 76.4744 166.496 76.4744C166.78 76.4744 167.061 76.5218 167.338 76.6165C167.615 76.7112 167.867 76.8651 168.094 77.0781C168.321 77.2888 168.502 77.5682 168.637 77.9162C168.772 78.2642 168.84 78.6927 168.84 79.2017V79.5568H164.635V78.8324H167.988C167.988 78.5246 167.926 78.25 167.803 78.0085C167.682 77.767 167.509 77.5765 167.284 77.4368C167.062 77.2971 166.799 77.2273 166.496 77.2273C166.162 77.2273 165.873 77.3101 165.63 77.4759C165.388 77.6392 165.202 77.8523 165.072 78.1151C164.942 78.3778 164.877 78.6596 164.877 78.9602V79.4432C164.877 79.8551 164.948 80.2043 165.09 80.4908C165.234 80.7749 165.434 80.9915 165.69 81.1406C165.946 81.2874 166.243 81.3608 166.581 81.3608C166.801 81.3608 167 81.33 167.178 81.2685C167.358 81.2045 167.513 81.1098 167.643 80.9844C167.773 80.8565 167.874 80.6979 167.945 80.5085L168.755 80.7358C168.669 81.0104 168.526 81.2519 168.325 81.4602C168.124 81.6662 167.875 81.8272 167.579 81.9432C167.283 82.0568 166.951 82.1136 166.581 82.1136ZM174.409 76.5455L172.392 82H171.54L169.523 76.5455H170.432L171.937 80.892H171.994L173.5 76.5455H174.409ZM176.954 82.1278C176.609 82.1278 176.295 82.0627 176.013 81.9325C175.731 81.8 175.508 81.6094 175.342 81.3608C175.176 81.1098 175.093 80.8068 175.093 80.4517C175.093 80.1392 175.155 79.8859 175.278 79.6918C175.401 79.4953 175.566 79.3414 175.772 79.2301C175.978 79.1188 176.205 79.036 176.453 78.9815C176.704 78.9247 176.957 78.8797 177.21 78.8466C177.541 78.804 177.81 78.772 178.016 78.7507C178.224 78.727 178.376 78.688 178.471 78.6335C178.568 78.5791 178.616 78.4844 178.616 78.3494V78.321C178.616 77.9706 178.52 77.6984 178.328 77.5043C178.139 77.3101 177.851 77.2131 177.466 77.2131C177.065 77.2131 176.752 77.3007 176.525 77.4759C176.297 77.651 176.137 77.8381 176.045 78.0369L175.25 77.7528C175.392 77.4214 175.581 77.1634 175.818 76.9787C176.057 76.7917 176.317 76.6615 176.599 76.5881C176.883 76.5123 177.163 76.4744 177.437 76.4744C177.612 76.4744 177.814 76.4957 178.041 76.5384C178.27 76.5786 178.492 76.6626 178.705 76.7905C178.92 76.9183 179.099 77.1113 179.241 77.3693C179.383 77.6274 179.454 77.973 179.454 78.4062V82H178.616V81.2614H178.574C178.517 81.3797 178.422 81.5064 178.289 81.6413C178.157 81.7763 177.98 81.8911 177.76 81.9858C177.54 82.0805 177.271 82.1278 176.954 82.1278ZM177.082 81.375C177.413 81.375 177.693 81.3099 177.92 81.1797C178.15 81.0495 178.323 80.8814 178.439 80.6754C178.557 80.4695 178.616 80.2528 178.616 80.0256V79.2585C178.581 79.3011 178.502 79.3402 178.382 79.3757C178.263 79.4089 178.126 79.4384 177.97 79.4645C177.816 79.4882 177.666 79.5095 177.519 79.5284C177.374 79.545 177.257 79.5592 177.167 79.571C176.949 79.5994 176.746 79.6456 176.556 79.7095C176.369 79.7711 176.218 79.8646 176.102 79.9901C175.988 80.1132 175.931 80.2812 175.931 80.4943C175.931 80.7855 176.039 81.0057 176.255 81.1548C176.472 81.3016 176.748 81.375 177.082 81.375ZM181.822 74.7273V82H180.984V74.7273H181.822Z" fill="black"/>
<path d="M97.2503 128.727L99.4094 134.849H99.4946L101.654 128.727H102.577L99.9065 136H98.9974L96.327 128.727H97.2503ZM105.375 136.114C104.85 136.114 104.396 135.998 104.015 135.766C103.636 135.531 103.344 135.205 103.138 134.786C102.934 134.364 102.833 133.874 102.833 133.315C102.833 132.757 102.934 132.264 103.138 131.838C103.344 131.41 103.63 131.076 103.997 130.837C104.367 130.595 104.798 130.474 105.29 130.474C105.574 130.474 105.855 130.522 106.132 130.616C106.409 130.711 106.661 130.865 106.888 131.078C107.115 131.289 107.296 131.568 107.431 131.916C107.566 132.264 107.634 132.693 107.634 133.202V133.557H103.429V132.832H106.782C106.782 132.525 106.72 132.25 106.597 132.009C106.476 131.767 106.303 131.576 106.078 131.437C105.856 131.297 105.593 131.227 105.29 131.227C104.956 131.227 104.667 131.31 104.424 131.476C104.182 131.639 103.996 131.852 103.866 132.115C103.736 132.378 103.671 132.66 103.671 132.96V133.443C103.671 133.855 103.742 134.204 103.884 134.491C104.028 134.775 104.228 134.991 104.484 135.141C104.74 135.287 105.037 135.361 105.375 135.361C105.595 135.361 105.794 135.33 105.972 135.268C106.152 135.205 106.307 135.11 106.437 134.984C106.567 134.857 106.668 134.698 106.739 134.509L107.549 134.736C107.463 135.01 107.32 135.252 107.119 135.46C106.918 135.666 106.669 135.827 106.373 135.943C106.077 136.057 105.745 136.114 105.375 136.114ZM108.909 136V130.545H109.718V131.369H109.775C109.875 131.099 110.054 130.88 110.315 130.712C110.575 130.544 110.869 130.46 111.196 130.46C111.257 130.46 111.334 130.461 111.426 130.464C111.519 130.466 111.589 130.47 111.636 130.474V131.327C111.608 131.32 111.542 131.309 111.441 131.295C111.341 131.278 111.236 131.27 111.125 131.27C110.859 131.27 110.623 131.326 110.414 131.437C110.208 131.546 110.045 131.697 109.924 131.891C109.806 132.083 109.747 132.302 109.747 132.548V136H108.909ZM114.234 136.128C113.889 136.128 113.575 136.063 113.293 135.933C113.012 135.8 112.788 135.609 112.622 135.361C112.457 135.11 112.374 134.807 112.374 134.452C112.374 134.139 112.435 133.886 112.558 133.692C112.681 133.495 112.846 133.341 113.052 133.23C113.258 133.119 113.485 133.036 113.734 132.982C113.985 132.925 114.237 132.88 114.49 132.847C114.822 132.804 115.09 132.772 115.296 132.751C115.505 132.727 115.656 132.688 115.751 132.634C115.848 132.579 115.896 132.484 115.896 132.349V132.321C115.896 131.971 115.801 131.698 115.609 131.504C115.419 131.31 115.132 131.213 114.746 131.213C114.346 131.213 114.032 131.301 113.805 131.476C113.578 131.651 113.418 131.838 113.325 132.037L112.53 131.753C112.672 131.421 112.861 131.163 113.098 130.979C113.337 130.792 113.598 130.661 113.879 130.588C114.163 130.512 114.443 130.474 114.717 130.474C114.893 130.474 115.094 130.496 115.321 130.538C115.551 130.579 115.772 130.663 115.985 130.79C116.201 130.918 116.379 131.111 116.521 131.369C116.663 131.627 116.734 131.973 116.734 132.406V136H115.896V135.261H115.854C115.797 135.38 115.702 135.506 115.57 135.641C115.437 135.776 115.261 135.891 115.041 135.986C114.82 136.08 114.552 136.128 114.234 136.128ZM114.362 135.375C114.694 135.375 114.973 135.31 115.2 135.18C115.43 135.049 115.603 134.881 115.719 134.675C115.837 134.469 115.896 134.253 115.896 134.026V133.259C115.861 133.301 115.783 133.34 115.662 133.376C115.544 133.409 115.406 133.438 115.25 133.464C115.096 133.488 114.946 133.509 114.799 133.528C114.655 133.545 114.537 133.559 114.448 133.571C114.23 133.599 114.026 133.646 113.837 133.71C113.65 133.771 113.498 133.865 113.382 133.99C113.269 134.113 113.212 134.281 113.212 134.494C113.212 134.786 113.319 135.006 113.535 135.155C113.753 135.302 114.028 135.375 114.362 135.375ZM120.48 136.114C119.969 136.114 119.528 135.993 119.159 135.751C118.79 135.51 118.506 135.177 118.307 134.754C118.108 134.33 118.008 133.846 118.008 133.301C118.008 132.747 118.11 132.258 118.314 131.835C118.52 131.408 118.806 131.076 119.173 130.837C119.543 130.595 119.973 130.474 120.466 130.474C120.849 130.474 121.195 130.545 121.503 130.688C121.811 130.83 122.063 131.028 122.259 131.284C122.456 131.54 122.578 131.838 122.625 132.179H121.787C121.723 131.93 121.581 131.71 121.361 131.518C121.143 131.324 120.849 131.227 120.48 131.227C120.153 131.227 119.867 131.312 119.621 131.483C119.377 131.651 119.186 131.889 119.049 132.197C118.914 132.502 118.847 132.861 118.847 133.273C118.847 133.694 118.913 134.061 119.045 134.374C119.18 134.686 119.37 134.929 119.614 135.102C119.86 135.274 120.149 135.361 120.48 135.361C120.698 135.361 120.896 135.323 121.073 135.247C121.251 135.171 121.401 135.062 121.524 134.92C121.647 134.778 121.735 134.608 121.787 134.409H122.625C122.578 134.731 122.46 135.021 122.273 135.279C122.089 135.535 121.844 135.738 121.538 135.89C121.235 136.039 120.882 136.114 120.48 136.114ZM123.85 136V130.545H124.688V136H123.85ZM124.276 129.636C124.113 129.636 123.972 129.581 123.854 129.469C123.738 129.358 123.68 129.224 123.68 129.068C123.68 128.912 123.738 128.778 123.854 128.667C123.972 128.556 124.113 128.5 124.276 128.5C124.44 128.5 124.579 128.556 124.695 128.667C124.814 128.778 124.873 128.912 124.873 129.068C124.873 129.224 124.814 129.358 124.695 129.469C124.579 129.581 124.44 129.636 124.276 129.636ZM128.595 130.545V131.256H125.769V130.545H128.595ZM126.592 129.239H127.43V134.438C127.43 134.674 127.465 134.852 127.533 134.97C127.604 135.086 127.694 135.164 127.803 135.205C127.915 135.242 128.032 135.261 128.155 135.261C128.247 135.261 128.323 135.257 128.382 135.247C128.441 135.235 128.489 135.226 128.524 135.219L128.695 135.972C128.638 135.993 128.559 136.014 128.457 136.036C128.355 136.059 128.226 136.071 128.07 136.071C127.833 136.071 127.601 136.02 127.374 135.918C127.149 135.817 126.962 135.661 126.813 135.453C126.666 135.245 126.592 134.982 126.592 134.665V129.239ZM130.396 138.045C130.254 138.045 130.127 138.034 130.016 138.01C129.904 137.989 129.828 137.967 129.785 137.946L129.998 137.207C130.202 137.259 130.381 137.278 130.538 137.264C130.694 137.25 130.832 137.18 130.953 137.055C131.076 136.932 131.189 136.732 131.291 136.455L131.447 136.028L129.43 130.545H130.339L131.845 134.892H131.901L133.407 130.545H134.316L132.001 136.795C131.897 137.077 131.768 137.31 131.614 137.495C131.46 137.682 131.281 137.821 131.078 137.911C130.876 138 130.649 138.045 130.396 138.045ZM138.235 138.045V130.545H139.044V131.412H139.144C139.205 131.317 139.291 131.196 139.4 131.05C139.511 130.901 139.669 130.768 139.875 130.652C140.084 130.534 140.366 130.474 140.721 130.474C141.18 130.474 141.585 130.589 141.935 130.819C142.285 131.049 142.559 131.374 142.755 131.795C142.952 132.217 143.05 132.714 143.05 133.287C143.05 133.865 142.952 134.365 142.755 134.789C142.559 135.21 142.287 135.537 141.939 135.769C141.591 135.999 141.189 136.114 140.735 136.114C140.384 136.114 140.104 136.056 139.893 135.94C139.682 135.821 139.52 135.687 139.407 135.538C139.293 135.387 139.205 135.261 139.144 135.162H139.073V138.045H138.235ZM139.059 133.273C139.059 133.685 139.119 134.048 139.24 134.363C139.361 134.675 139.537 134.92 139.769 135.098C140.001 135.273 140.285 135.361 140.621 135.361C140.972 135.361 141.264 135.268 141.498 135.084C141.735 134.897 141.913 134.646 142.031 134.331C142.152 134.014 142.212 133.661 142.212 133.273C142.212 132.889 142.153 132.544 142.035 132.236C141.919 131.926 141.742 131.681 141.505 131.501C141.271 131.318 140.976 131.227 140.621 131.227C140.28 131.227 139.994 131.314 139.762 131.487C139.53 131.657 139.355 131.896 139.236 132.204C139.118 132.509 139.059 132.866 139.059 133.273ZM144.329 136V130.545H145.138V131.369H145.195C145.294 131.099 145.474 130.88 145.735 130.712C145.995 130.544 146.289 130.46 146.616 130.46C146.677 130.46 146.754 130.461 146.846 130.464C146.939 130.466 147.008 130.47 147.056 130.474V131.327C147.027 131.32 146.962 131.309 146.861 131.295C146.761 131.278 146.656 131.27 146.544 131.27C146.279 131.27 146.043 131.326 145.834 131.437C145.628 131.546 145.465 131.697 145.344 131.891C145.226 132.083 145.167 132.302 145.167 132.548V136H144.329ZM150.17 136.114C149.645 136.114 149.191 135.998 148.81 135.766C148.431 135.531 148.139 135.205 147.933 134.786C147.729 134.364 147.628 133.874 147.628 133.315C147.628 132.757 147.729 132.264 147.933 131.838C148.139 131.41 148.425 131.076 148.792 130.837C149.162 130.595 149.593 130.474 150.085 130.474C150.369 130.474 150.65 130.522 150.927 130.616C151.204 130.711 151.456 130.865 151.683 131.078C151.91 131.289 152.091 131.568 152.226 131.916C152.361 132.264 152.429 132.693 152.429 133.202V133.557H148.224V132.832H151.576C151.576 132.525 151.515 132.25 151.392 132.009C151.271 131.767 151.098 131.576 150.873 131.437C150.651 131.297 150.388 131.227 150.085 131.227C149.751 131.227 149.462 131.31 149.218 131.476C148.977 131.639 148.791 131.852 148.661 132.115C148.531 132.378 148.466 132.66 148.466 132.96V133.443C148.466 133.855 148.537 134.204 148.679 134.491C148.823 134.775 149.023 134.991 149.279 135.141C149.535 135.287 149.832 135.361 150.17 135.361C150.39 135.361 150.589 135.33 150.767 135.268C150.947 135.205 151.102 135.11 151.232 134.984C151.362 134.857 151.463 134.698 151.534 134.509L152.343 134.736C152.258 135.01 152.115 135.252 151.914 135.46C151.713 135.666 151.464 135.827 151.168 135.943C150.872 136.057 150.54 136.114 150.17 136.114ZM155.763 136.114C155.309 136.114 154.907 135.999 154.559 135.769C154.211 135.537 153.939 135.21 153.743 134.789C153.546 134.365 153.448 133.865 153.448 133.287C153.448 132.714 153.546 132.217 153.743 131.795C153.939 131.374 154.213 131.049 154.563 130.819C154.913 130.589 155.318 130.474 155.777 130.474C156.133 130.474 156.413 130.534 156.619 130.652C156.827 130.768 156.986 130.901 157.095 131.05C157.206 131.196 157.293 131.317 157.354 131.412H157.425V128.727H158.263V136H157.454V135.162H157.354C157.293 135.261 157.205 135.387 157.091 135.538C156.978 135.687 156.816 135.821 156.605 135.94C156.394 136.056 156.114 136.114 155.763 136.114ZM155.877 135.361C156.213 135.361 156.497 135.273 156.729 135.098C156.961 134.92 157.138 134.675 157.258 134.363C157.379 134.048 157.439 133.685 157.439 133.273C157.439 132.866 157.38 132.509 157.262 132.204C157.143 131.896 156.968 131.657 156.736 131.487C156.504 131.314 156.218 131.227 155.877 131.227C155.522 131.227 155.226 131.318 154.989 131.501C154.755 131.681 154.578 131.926 154.46 132.236C154.344 132.544 154.286 132.889 154.286 133.273C154.286 133.661 154.345 134.014 154.464 134.331C154.584 134.646 154.762 134.897 154.996 135.084C155.233 135.268 155.526 135.361 155.877 135.361ZM159.915 136V130.545H160.753V136H159.915ZM160.341 129.636C160.177 129.636 160.036 129.581 159.918 129.469C159.802 129.358 159.744 129.224 159.744 129.068C159.744 128.912 159.802 128.778 159.918 128.667C160.036 128.556 160.177 128.5 160.341 128.5C160.504 128.5 160.644 128.556 160.76 128.667C160.878 128.778 160.937 128.912 160.937 129.068C160.937 129.224 160.878 129.358 160.76 129.469C160.644 129.581 160.504 129.636 160.341 129.636ZM164.503 136.114C163.992 136.114 163.552 135.993 163.182 135.751C162.813 135.51 162.529 135.177 162.33 134.754C162.131 134.33 162.032 133.846 162.032 133.301C162.032 132.747 162.134 132.258 162.337 131.835C162.543 131.408 162.83 131.076 163.197 130.837C163.566 130.595 163.997 130.474 164.489 130.474C164.873 130.474 165.218 130.545 165.526 130.688C165.834 130.83 166.086 131.028 166.283 131.284C166.479 131.54 166.601 131.838 166.648 132.179H165.81C165.746 131.93 165.604 131.71 165.384 131.518C165.166 131.324 164.873 131.227 164.503 131.227C164.177 131.227 163.89 131.312 163.644 131.483C163.4 131.651 163.21 131.889 163.072 132.197C162.937 132.502 162.87 132.861 162.87 133.273C162.87 133.694 162.936 134.061 163.069 134.374C163.204 134.686 163.393 134.929 163.637 135.102C163.883 135.274 164.172 135.361 164.503 135.361C164.721 135.361 164.919 135.323 165.097 135.247C165.274 135.171 165.424 135.062 165.547 134.92C165.671 134.778 165.758 134.608 165.81 134.409H166.648C166.601 134.731 166.484 135.021 166.297 135.279C166.112 135.535 165.867 135.738 165.562 135.89C165.259 136.039 164.906 136.114 164.503 136.114ZM170.246 130.545V131.256H167.419V130.545H170.246ZM168.243 129.239H169.081V134.438C169.081 134.674 169.115 134.852 169.184 134.97C169.255 135.086 169.345 135.164 169.454 135.205C169.565 135.242 169.682 135.261 169.805 135.261C169.898 135.261 169.973 135.257 170.033 135.247C170.092 135.235 170.139 135.226 170.175 135.219L170.345 135.972C170.288 135.993 170.209 136.014 170.107 136.036C170.005 136.059 169.876 136.071 169.72 136.071C169.483 136.071 169.251 136.02 169.024 135.918C168.799 135.817 168.612 135.661 168.463 135.453C168.316 135.245 168.243 134.982 168.243 134.665V129.239ZM171.506 136V130.545H172.344V136H171.506ZM171.932 129.636C171.769 129.636 171.628 129.581 171.51 129.469C171.394 129.358 171.336 129.224 171.336 129.068C171.336 128.912 171.394 128.778 171.51 128.667C171.628 128.556 171.769 128.5 171.932 128.5C172.096 128.5 172.235 128.556 172.351 128.667C172.47 128.778 172.529 128.912 172.529 129.068C172.529 129.224 172.47 129.358 172.351 129.469C172.235 129.581 172.096 129.636 171.932 129.636ZM176.095 136.114C175.603 136.114 175.171 135.996 174.799 135.762C174.43 135.528 174.141 135.2 173.933 134.778C173.727 134.357 173.624 133.865 173.624 133.301C173.624 132.733 173.727 132.237 173.933 131.813C174.141 131.389 174.43 131.06 174.799 130.826C175.171 130.592 175.603 130.474 176.095 130.474C176.588 130.474 177.019 130.592 177.388 130.826C177.76 131.06 178.048 131.389 178.254 131.813C178.463 132.237 178.567 132.733 178.567 133.301C178.567 133.865 178.463 134.357 178.254 134.778C178.048 135.2 177.76 135.528 177.388 135.762C177.019 135.996 176.588 136.114 176.095 136.114ZM176.095 135.361C176.469 135.361 176.777 135.265 177.019 135.073C177.26 134.881 177.439 134.629 177.555 134.317C177.671 134.004 177.729 133.666 177.729 133.301C177.729 132.937 177.671 132.597 177.555 132.282C177.439 131.967 177.26 131.713 177.019 131.518C176.777 131.324 176.469 131.227 176.095 131.227C175.721 131.227 175.413 131.324 175.172 131.518C174.93 131.713 174.752 131.967 174.636 132.282C174.52 132.597 174.462 132.937 174.462 133.301C174.462 133.666 174.52 134.004 174.636 134.317C174.752 134.629 174.93 134.881 175.172 135.073C175.413 135.265 175.721 135.361 176.095 135.361ZM180.684 132.719V136H179.846V130.545H180.656V131.398H180.727C180.855 131.121 181.049 130.898 181.309 130.73C181.57 130.56 181.906 130.474 182.318 130.474C182.687 130.474 183.01 130.55 183.287 130.702C183.564 130.851 183.78 131.078 183.934 131.384C184.087 131.687 184.164 132.07 184.164 132.534V136H183.326V132.591C183.326 132.162 183.215 131.829 182.992 131.589C182.77 131.348 182.465 131.227 182.076 131.227C181.809 131.227 181.57 131.285 181.359 131.401C181.151 131.517 180.986 131.687 180.865 131.909C180.745 132.132 180.684 132.402 180.684 132.719Z" fill="black"/>
<path d="M85.9998 190V182.727H90.3606V183.509H86.8805V185.966H90.0339V186.747H86.8805V190H85.9998ZM93.3604 190.128C93.0148 190.128 92.7011 190.063 92.4194 189.933C92.1377 189.8 91.9139 189.609 91.7482 189.361C91.5825 189.11 91.4996 188.807 91.4996 188.452C91.4996 188.139 91.5612 187.886 91.6843 187.692C91.8074 187.495 91.9719 187.341 92.1779 187.23C92.3839 187.119 92.6112 187.036 92.8597 186.982C93.1107 186.925 93.3628 186.88 93.6161 186.847C93.9476 186.804 94.2163 186.772 94.4222 186.751C94.6306 186.727 94.7821 186.688 94.8768 186.634C94.9738 186.579 95.0224 186.484 95.0224 186.349V186.321C95.0224 185.971 94.9265 185.698 94.7347 185.504C94.5453 185.31 94.2577 185.213 93.8718 185.213C93.4717 185.213 93.158 185.301 92.9308 185.476C92.7035 185.651 92.5437 185.838 92.4513 186.037L91.6559 185.753C91.7979 185.421 91.9873 185.163 92.2241 184.979C92.4632 184.792 92.7236 184.661 93.0053 184.588C93.2894 184.512 93.5688 184.474 93.8434 184.474C94.0186 184.474 94.2198 184.496 94.4471 184.538C94.6767 184.579 94.8981 184.663 95.1112 184.79C95.3266 184.918 95.5053 185.111 95.6474 185.369C95.7894 185.627 95.8604 185.973 95.8604 186.406V190H95.0224V189.261H94.9798C94.9229 189.38 94.8282 189.506 94.6957 189.641C94.5631 189.776 94.3867 189.891 94.1665 189.986C93.9464 190.08 93.6777 190.128 93.3604 190.128ZM93.4883 189.375C93.8197 189.375 94.0991 189.31 94.3263 189.18C94.556 189.049 94.7288 188.881 94.8448 188.675C94.9632 188.469 95.0224 188.253 95.0224 188.026V187.259C94.9869 187.301 94.9087 187.34 94.788 187.376C94.6696 187.409 94.5323 187.438 94.3761 187.464C94.2222 187.488 94.0719 187.509 93.9251 187.528C93.7807 187.545 93.6635 187.559 93.5735 187.571C93.3557 187.599 93.1521 187.646 92.9627 187.71C92.7757 187.771 92.6242 187.865 92.5082 187.99C92.3945 188.113 92.3377 188.281 92.3377 188.494C92.3377 188.786 92.4454 189.006 92.6609 189.155C92.8787 189.302 93.1545 189.375 93.4883 189.375ZM99.606 190.114C99.0946 190.114 98.6543 189.993 98.285 189.751C97.9157 189.51 97.6316 189.177 97.4327 188.754C97.2338 188.33 97.1344 187.846 97.1344 187.301C97.1344 186.747 97.2362 186.258 97.4398 185.835C97.6458 185.408 97.9322 185.076 98.2992 184.837C98.6685 184.595 99.0994 184.474 99.5918 184.474C99.9753 184.474 100.321 184.545 100.629 184.688C100.936 184.83 101.189 185.028 101.385 185.284C101.582 185.54 101.704 185.838 101.751 186.179H100.913C100.849 185.93 100.707 185.71 100.487 185.518C100.269 185.324 99.9753 185.227 99.606 185.227C99.2793 185.227 98.9928 185.312 98.7466 185.483C98.5028 185.651 98.3122 185.889 98.1749 186.197C98.04 186.502 97.9725 186.861 97.9725 187.273C97.9725 187.694 98.0388 188.061 98.1713 188.374C98.3063 188.686 98.4957 188.929 98.7395 189.102C98.9857 189.274 99.2746 189.361 99.606 189.361C99.8238 189.361 100.021 189.323 100.199 189.247C100.377 189.171 100.527 189.062 100.65 188.92C100.773 188.778 100.861 188.608 100.913 188.409H101.751C101.704 188.731 101.586 189.021 101.399 189.279C101.215 189.535 100.97 189.738 100.664 189.89C100.361 190.039 100.008 190.114 99.606 190.114ZM105.348 184.545V185.256H102.521V184.545H105.348ZM103.345 183.239H104.183V188.438C104.183 188.674 104.218 188.852 104.286 188.97C104.357 189.086 104.447 189.164 104.556 189.205C104.668 189.242 104.785 189.261 104.908 189.261C105 189.261 105.076 189.257 105.135 189.247C105.194 189.235 105.242 189.226 105.277 189.219L105.448 189.972C105.391 189.993 105.311 190.014 105.21 190.036C105.108 190.059 104.979 190.071 104.823 190.071C104.586 190.071 104.354 190.02 104.127 189.918C103.902 189.817 103.715 189.661 103.566 189.453C103.419 189.245 103.345 188.982 103.345 188.665V183.239ZM109.539 186.491V187.273H106.357V186.491H109.539ZM113.229 190.114C112.718 190.114 112.277 189.993 111.908 189.751C111.539 189.51 111.255 189.177 111.056 188.754C110.857 188.33 110.757 187.846 110.757 187.301C110.757 186.747 110.859 186.258 111.063 185.835C111.269 185.408 111.555 185.076 111.922 184.837C112.292 184.595 112.722 184.474 113.215 184.474C113.598 184.474 113.944 184.545 114.252 184.688C114.56 184.83 114.812 185.028 115.008 185.284C115.205 185.54 115.327 185.838 115.374 186.179H114.536C114.472 185.93 114.33 185.71 114.11 185.518C113.892 185.324 113.598 185.227 113.229 185.227C112.902 185.227 112.616 185.312 112.37 185.483C112.126 185.651 111.935 185.889 111.798 186.197C111.663 186.502 111.596 186.861 111.596 187.273C111.596 187.694 111.662 188.061 111.794 188.374C111.929 188.686 112.119 188.929 112.363 189.102C112.609 189.274 112.898 189.361 113.229 189.361C113.447 189.361 113.645 189.323 113.822 189.247C114 189.171 114.15 189.062 114.273 188.92C114.396 188.778 114.484 188.608 114.536 188.409H115.374C115.327 188.731 115.209 189.021 115.022 189.279C114.838 189.535 114.593 189.738 114.287 189.89C113.984 190.039 113.632 190.114 113.229 190.114ZM117.437 186.719V190H116.599V182.727H117.437V185.398H117.508C117.636 185.116 117.828 184.892 118.083 184.727C118.342 184.558 118.685 184.474 119.113 184.474C119.485 184.474 119.81 184.549 120.09 184.698C120.369 184.845 120.586 185.071 120.74 185.376C120.896 185.679 120.974 186.065 120.974 186.534V190H120.136V186.591C120.136 186.158 120.024 185.823 119.799 185.586C119.576 185.347 119.267 185.227 118.872 185.227C118.597 185.227 118.351 185.285 118.133 185.401C117.918 185.517 117.747 185.687 117.622 185.909C117.499 186.132 117.437 186.402 117.437 186.719ZM124.794 190.114C124.269 190.114 123.815 189.998 123.434 189.766C123.055 189.531 122.763 189.205 122.557 188.786C122.353 188.364 122.252 187.874 122.252 187.315C122.252 186.757 122.353 186.264 122.557 185.838C122.763 185.41 123.049 185.076 123.416 184.837C123.786 184.595 124.217 184.474 124.709 184.474C124.993 184.474 125.274 184.522 125.551 184.616C125.828 184.711 126.08 184.865 126.307 185.078C126.534 185.289 126.715 185.568 126.85 185.916C126.985 186.264 127.053 186.693 127.053 187.202V187.557H122.848V186.832H126.2C126.2 186.525 126.139 186.25 126.016 186.009C125.895 185.767 125.722 185.576 125.497 185.437C125.275 185.297 125.012 185.227 124.709 185.227C124.375 185.227 124.086 185.31 123.843 185.476C123.601 185.639 123.415 185.852 123.285 186.115C123.155 186.378 123.09 186.66 123.09 186.96V187.443C123.09 187.855 123.161 188.204 123.303 188.491C123.447 188.775 123.647 188.991 123.903 189.141C124.159 189.287 124.456 189.361 124.794 189.361C125.014 189.361 125.213 189.33 125.391 189.268C125.571 189.205 125.726 189.11 125.856 188.984C125.986 188.857 126.087 188.698 126.158 188.509L126.968 188.736C126.882 189.01 126.739 189.252 126.538 189.46C126.337 189.666 126.088 189.827 125.792 189.943C125.496 190.057 125.164 190.114 124.794 190.114ZM130.544 190.114C130.032 190.114 129.592 189.993 129.222 189.751C128.853 189.51 128.569 189.177 128.37 188.754C128.171 188.33 128.072 187.846 128.072 187.301C128.072 186.747 128.174 186.258 128.377 185.835C128.583 185.408 128.87 185.076 129.237 184.837C129.606 184.595 130.037 184.474 130.529 184.474C130.913 184.474 131.258 184.545 131.566 184.688C131.874 184.83 132.126 185.028 132.323 185.284C132.519 185.54 132.641 185.838 132.688 186.179H131.85C131.786 185.93 131.644 185.71 131.424 185.518C131.206 185.324 130.913 185.227 130.544 185.227C130.217 185.227 129.93 185.312 129.684 185.483C129.44 185.651 129.25 185.889 129.112 186.197C128.977 186.502 128.91 186.861 128.91 187.273C128.91 187.694 128.976 188.061 129.109 188.374C129.244 188.686 129.433 188.929 129.677 189.102C129.923 189.274 130.212 189.361 130.544 189.361C130.761 189.361 130.959 189.323 131.137 189.247C131.314 189.171 131.464 189.062 131.588 188.92C131.711 188.778 131.798 188.608 131.85 188.409H132.688C132.641 188.731 132.524 189.021 132.337 189.279C132.152 189.535 131.907 189.738 131.602 189.89C131.299 190.039 130.946 190.114 130.544 190.114ZM134.695 188.011L134.681 186.974H134.851L137.237 184.545H138.274L135.732 187.116H135.661L134.695 188.011ZM133.914 190V182.727H134.752V190H133.914ZM137.379 190L135.249 187.301L135.845 186.719L138.445 190H137.379ZM144.452 190.114C143.927 190.114 143.473 189.998 143.092 189.766C142.714 189.531 142.421 189.205 142.215 188.786C142.012 188.364 141.91 187.874 141.91 187.315C141.91 186.757 142.012 186.264 142.215 185.838C142.421 185.41 142.708 185.076 143.075 184.837C143.444 184.595 143.875 184.474 144.367 184.474C144.651 184.474 144.932 184.522 145.209 184.616C145.486 184.711 145.738 184.865 145.965 185.078C146.192 185.289 146.374 185.568 146.509 185.916C146.643 186.264 146.711 186.693 146.711 187.202V187.557H142.506V186.832H145.859C145.859 186.525 145.797 186.25 145.674 186.009C145.553 185.767 145.38 185.576 145.156 185.437C144.933 185.297 144.67 185.227 144.367 185.227C144.033 185.227 143.745 185.31 143.501 185.476C143.259 185.639 143.073 185.852 142.943 186.115C142.813 186.378 142.748 186.66 142.748 186.96V187.443C142.748 187.855 142.819 188.204 142.961 188.491C143.105 188.775 143.305 188.991 143.561 189.141C143.817 189.287 144.114 189.361 144.452 189.361C144.673 189.361 144.871 189.33 145.049 189.268C145.229 189.205 145.384 189.11 145.514 188.984C145.644 188.857 145.745 188.698 145.816 188.509L146.626 188.736C146.54 189.01 146.397 189.252 146.196 189.46C145.995 189.666 145.746 189.827 145.45 189.943C145.154 190.057 144.822 190.114 144.452 190.114ZM148.464 184.545L149.771 186.776L151.078 184.545H152.044L150.282 187.273L152.044 190H151.078L149.771 187.884L148.464 190H147.498L149.231 187.273L147.498 184.545H148.464ZM153.24 192.045V184.545H154.049V185.412H154.149C154.21 185.317 154.296 185.196 154.404 185.05C154.516 184.901 154.674 184.768 154.88 184.652C155.089 184.534 155.37 184.474 155.725 184.474C156.185 184.474 156.59 184.589 156.94 184.819C157.29 185.049 157.564 185.374 157.76 185.795C157.957 186.217 158.055 186.714 158.055 187.287C158.055 187.865 157.957 188.365 157.76 188.789C157.564 189.21 157.292 189.537 156.944 189.769C156.596 189.999 156.194 190.114 155.74 190.114C155.389 190.114 155.109 190.056 154.898 189.94C154.687 189.821 154.525 189.687 154.412 189.538C154.298 189.387 154.21 189.261 154.149 189.162H154.078V192.045H153.24ZM154.064 187.273C154.064 187.685 154.124 188.048 154.245 188.363C154.365 188.675 154.542 188.92 154.774 189.098C155.006 189.273 155.29 189.361 155.626 189.361C155.976 189.361 156.269 189.268 156.503 189.084C156.74 188.897 156.917 188.646 157.036 188.331C157.157 188.014 157.217 187.661 157.217 187.273C157.217 186.889 157.158 186.544 157.039 186.236C156.923 185.926 156.747 185.681 156.51 185.501C156.276 185.318 155.981 185.227 155.626 185.227C155.285 185.227 154.999 185.314 154.767 185.487C154.535 185.657 154.359 185.896 154.241 186.204C154.123 186.509 154.064 186.866 154.064 187.273ZM160.172 182.727V190H159.333V182.727H160.172ZM163.312 190.128C162.966 190.128 162.652 190.063 162.371 189.933C162.089 189.8 161.865 189.609 161.699 189.361C161.534 189.11 161.451 188.807 161.451 188.452C161.451 188.139 161.512 187.886 161.635 187.692C161.759 187.495 161.923 187.341 162.129 187.23C162.335 187.119 162.562 187.036 162.811 186.982C163.062 186.925 163.314 186.88 163.567 186.847C163.899 186.804 164.167 186.772 164.373 186.751C164.582 186.727 164.733 186.688 164.828 186.634C164.925 186.579 164.974 186.484 164.974 186.349V186.321C164.974 185.971 164.878 185.698 164.686 185.504C164.497 185.31 164.209 185.213 163.823 185.213C163.423 185.213 163.109 185.301 162.882 185.476C162.655 185.651 162.495 185.838 162.403 186.037L161.607 185.753C161.749 185.421 161.939 185.163 162.175 184.979C162.414 184.792 162.675 184.661 162.956 184.588C163.241 184.512 163.52 184.474 163.795 184.474C163.97 184.474 164.171 184.496 164.398 184.538C164.628 184.579 164.849 184.663 165.062 184.79C165.278 184.918 165.456 185.111 165.599 185.369C165.741 185.627 165.812 185.973 165.812 186.406V190H164.974V189.261H164.931C164.874 189.38 164.779 189.506 164.647 189.641C164.514 189.776 164.338 189.891 164.118 189.986C163.898 190.08 163.629 190.128 163.312 190.128ZM163.439 189.375C163.771 189.375 164.05 189.31 164.278 189.18C164.507 189.049 164.68 188.881 164.796 188.675C164.914 188.469 164.974 188.253 164.974 188.026V187.259C164.938 187.301 164.86 187.34 164.739 187.376C164.621 187.409 164.483 187.438 164.327 187.464C164.173 187.488 164.023 187.509 163.876 187.528C163.732 187.545 163.615 187.559 163.525 187.571C163.307 187.599 163.103 187.646 162.914 187.71C162.727 187.771 162.575 187.865 162.459 187.99C162.346 188.113 162.289 188.281 162.289 188.494C162.289 188.786 162.397 189.006 162.612 189.155C162.83 189.302 163.106 189.375 163.439 189.375ZM168.179 186.719V190H167.341V184.545H168.151V185.398H168.222C168.35 185.121 168.544 184.898 168.804 184.73C169.065 184.56 169.401 184.474 169.813 184.474C170.182 184.474 170.505 184.55 170.782 184.702C171.059 184.851 171.275 185.078 171.429 185.384C171.583 185.687 171.659 186.07 171.659 186.534V190H170.821V186.591C170.821 186.162 170.71 185.829 170.488 185.589C170.265 185.348 169.96 185.227 169.571 185.227C169.304 185.227 169.065 185.285 168.854 185.401C168.646 185.517 168.481 185.687 168.36 185.909C168.24 186.132 168.179 186.402 168.179 186.719ZM174.796 190.128C174.45 190.128 174.137 190.063 173.855 189.933C173.573 189.8 173.349 189.609 173.184 189.361C173.018 189.11 172.935 188.807 172.935 188.452C172.935 188.139 172.997 187.886 173.12 187.692C173.243 187.495 173.407 187.341 173.613 187.23C173.819 187.119 174.047 187.036 174.295 186.982C174.546 186.925 174.798 186.88 175.052 186.847C175.383 186.804 175.652 186.772 175.858 186.751C176.066 186.727 176.218 186.688 176.312 186.634C176.409 186.579 176.458 186.484 176.458 186.349V186.321C176.458 185.971 176.362 185.698 176.17 185.504C175.981 185.31 175.693 185.213 175.307 185.213C174.907 185.213 174.594 185.301 174.366 185.476C174.139 185.651 173.979 185.838 173.887 186.037L173.091 185.753C173.233 185.421 173.423 185.163 173.66 184.979C173.899 184.792 174.159 184.661 174.441 184.588C174.725 184.512 175.004 184.474 175.279 184.474C175.454 184.474 175.655 184.496 175.883 184.538C176.112 184.579 176.334 184.663 176.547 184.79C176.762 184.918 176.941 185.111 177.083 185.369C177.225 185.627 177.296 185.973 177.296 186.406V190H176.458V189.261H176.415C176.358 189.38 176.264 189.506 176.131 189.641C175.999 189.776 175.822 189.891 175.602 189.986C175.382 190.08 175.113 190.128 174.796 190.128ZM174.924 189.375C175.255 189.375 175.535 189.31 175.762 189.18C175.992 189.049 176.164 188.881 176.28 188.675C176.399 188.469 176.458 188.253 176.458 188.026V187.259C176.422 187.301 176.344 187.34 176.224 187.376C176.105 187.409 175.968 187.438 175.812 187.464C175.658 187.488 175.507 187.509 175.361 187.528C175.216 187.545 175.099 187.559 175.009 187.571C174.791 187.599 174.588 187.646 174.398 187.71C174.211 187.771 174.06 187.865 173.944 187.99C173.83 188.113 173.773 188.281 173.773 188.494C173.773 188.786 173.881 189.006 174.096 189.155C174.314 189.302 174.59 189.375 174.924 189.375ZM181.198 184.545V185.256H178.371V184.545H181.198ZM179.195 183.239H180.033V188.438C180.033 188.674 180.067 188.852 180.136 188.97C180.207 189.086 180.297 189.164 180.406 189.205C180.517 189.242 180.634 189.261 180.757 189.261C180.85 189.261 180.926 189.257 180.985 189.247C181.044 189.235 181.091 189.226 181.127 189.219L181.297 189.972C181.24 189.993 181.161 190.014 181.059 190.036C180.958 190.059 180.828 190.071 180.672 190.071C180.435 190.071 180.203 190.02 179.976 189.918C179.751 189.817 179.564 189.661 179.415 189.453C179.268 189.245 179.195 188.982 179.195 188.665V183.239ZM182.458 190V184.545H183.297V190H182.458ZM182.885 183.636C182.721 183.636 182.58 183.581 182.462 183.469C182.346 183.358 182.288 183.224 182.288 183.068C182.288 182.912 182.346 182.778 182.462 182.667C182.58 182.556 182.721 182.5 182.885 182.5C183.048 182.5 183.188 182.556 183.304 182.667C183.422 182.778 183.481 182.912 183.481 183.068C183.481 183.224 183.422 183.358 183.304 183.469C183.188 183.581 183.048 183.636 182.885 183.636ZM187.047 190.114C186.555 190.114 186.123 189.996 185.751 189.762C185.382 189.528 185.093 189.2 184.885 188.778C184.679 188.357 184.576 187.865 184.576 187.301C184.576 186.733 184.679 186.237 184.885 185.813C185.093 185.389 185.382 185.06 185.751 184.826C186.123 184.592 186.555 184.474 187.047 184.474C187.54 184.474 187.971 184.592 188.34 184.826C188.712 185.06 189.001 185.389 189.206 185.813C189.415 186.237 189.519 186.733 189.519 187.301C189.519 187.865 189.415 188.357 189.206 188.778C189.001 189.2 188.712 189.528 188.34 189.762C187.971 189.996 187.54 190.114 187.047 190.114ZM187.047 189.361C187.421 189.361 187.729 189.265 187.971 189.073C188.212 188.881 188.391 188.629 188.507 188.317C188.623 188.004 188.681 187.666 188.681 187.301C188.681 186.937 188.623 186.597 188.507 186.282C188.391 185.967 188.212 185.713 187.971 185.518C187.729 185.324 187.421 185.227 187.047 185.227C186.673 185.227 186.366 185.324 186.124 185.518C185.883 185.713 185.704 185.967 185.588 186.282C185.472 186.597 185.414 186.937 185.414 187.301C185.414 187.666 185.472 188.004 185.588 188.317C185.704 188.629 185.883 188.881 186.124 189.073C186.366 189.265 186.673 189.361 187.047 189.361ZM191.636 186.719V190H190.798V184.545H191.608V185.398H191.679C191.807 185.121 192.001 184.898 192.261 184.73C192.522 184.56 192.858 184.474 193.27 184.474C193.639 184.474 193.962 184.55 194.239 184.702C194.516 184.851 194.732 185.078 194.886 185.384C195.04 185.687 195.116 186.07 195.116 186.534V190H194.278V186.591C194.278 186.162 194.167 185.829 193.945 185.589C193.722 185.348 193.417 185.227 193.028 185.227C192.761 185.227 192.522 185.285 192.311 185.401C192.103 185.517 191.938 185.687 191.817 185.909C191.697 186.132 191.636 186.402 191.636 186.719Z" fill="black"/>
<path d="M140.646 61.3536C140.842 61.5488 141.158 61.5488 141.354 61.3536L144.536 58.1716C144.731 57.9763 144.731 57.6597 144.536 57.4645C144.34 57.2692 144.024 57.2692 143.828 57.4645L141 60.2929L138.172 57.4645C137.976 57.2692 137.66 57.2692 137.464 57.4645C137.269 57.6597 137.269 57.9763 137.464 58.1716L140.646 61.3536ZM140.5 41L140.5 61L141.5 61L141.5 41L140.5 41Z" fill="black"/>
<path d="M140.646 115.354C140.842 115.549 141.158 115.549 141.354 115.354L144.536 112.172C144.731 111.976 144.731 111.66 144.536 111.464C144.34 111.269 144.024 111.269 143.828 111.464L141 114.293L138.172 111.464C137.976 111.269 137.66 111.269 137.464 111.464C137.269 111.66 137.269 111.976 137.464 112.172L140.646 115.354ZM140.5 95L140.5 115L141.5 115L141.5 95L140.5 95Z" fill="black"/>
<path d="M140.646 169.354C140.842 169.549 141.158 169.549 141.354 169.354L144.536 166.172C144.731 165.976 144.731 165.66 144.536 165.464C144.34 165.269 144.024 165.269 143.828 165.464L141 168.293L138.172 165.464C137.976 165.269 137.66 165.269 137.464 165.464C137.269 165.66 137.269 165.976 137.464 166.172L140.646 169.354ZM140.5 149L140.5 169L141.5 169L141.5 149L140.5 149Z" fill="black"/>
</svg>
